<svg version="1.1" id="Layer_1" xmlns="http://www.w3.org/2000/svg" xmlns:xlink="http://www.w3.org/1999/xlink" x="0px" y="0px"
	 width="100%" viewBox="0 0 1000 400" enable-background="new 0 0 1000 400" xml:space="preserve">
<path fill="#166575" opacity="1.000000" stroke="none" 
	d="
M628.000000,401.000000 
	C418.703949,401.000000 209.907867,401.000000 1.055902,401.000000 
	C1.055902,267.727753 1.055902,134.455475 1.055902,1.091593 
	C334.212769,1.091593 667.425537,1.091593 1000.819214,1.091593 
	C1000.819214,134.333145 1000.819214,267.666534 1000.819214,401.000000 
	C876.788757,401.000000 752.644348,401.000000 628.000000,401.000000 
M490.586823,336.058502 
	C499.416260,335.996246 508.383362,336.919342 517.052307,335.708221 
	C565.094177,328.996246 600.843262,304.285217 622.874695,260.861206 
	C628.073730,250.613968 631.255737,239.343384 635.537476,228.091949 
	C646.692505,228.091949 658.509155,228.097626 670.325806,228.089828 
	C677.423645,228.085159 678.166626,227.381302 678.179016,220.449554 
	C678.201233,207.952744 678.189514,195.455841 678.183899,182.958984 
	C678.179993,174.159470 677.927917,173.909332 669.234497,173.908371 
	C657.608704,173.907074 645.982849,173.908051 634.430237,173.908051 
	C633.888672,171.765305 633.481201,170.158081 633.076355,168.550186 
	C624.809265,135.719254 606.668030,109.533051 579.232910,89.952583 
	C533.764954,57.502060 470.953125,57.825039 426.583710,88.072197 
	C390.530640,112.650002 369.935455,146.748825 366.305511,190.179596 
	C363.069031,228.902985 374.880310,263.282257 400.980194,292.158691 
	C424.628479,318.322723 454.455811,332.756805 490.586823,336.058502 
M264.750824,312.218231 
	C306.999359,280.612610 325.975891,238.059082 320.522583,186.035736 
	C315.599609,139.071701 290.780670,103.393425 249.004974,81.742844 
	C203.080734,57.942276 156.730042,59.972511 112.707954,87.795021 
	C50.575138,127.063736 34.030426,206.508804 66.950768,266.629791 
	C106.084633,338.098267 197.205917,359.168823 264.750824,312.218231 
M871.695618,69.952843 
	C829.607178,60.523849 790.598328,67.461960 756.657654,94.419250 
	C713.612427,128.607895 696.197083,173.965683 706.816406,227.792999 
	C723.118591,310.424713 807.209229,356.730560 886.498474,327.904083 
	C943.563599,307.157410 984.239014,247.955933 972.361511,179.302750 
	C962.539368,122.529549 927.744690,86.423141 871.695618,69.952843 
z"/>
<path fill="#F5F8F9" opacity="1.000000" stroke="none" 
	d="
M490.101837,336.051758 
	C454.455811,332.756805 424.628479,318.322723 400.980194,292.158691 
	C374.880310,263.282257 363.069031,228.902985 366.305511,190.179596 
	C369.935455,146.748825 390.530640,112.650002 426.583710,88.072197 
	C470.953125,57.825039 533.764954,57.502060 579.232910,89.952583 
	C606.668030,109.533051 624.809265,135.719254 633.076355,168.550186 
	C633.481201,170.158081 633.888672,171.765305 634.430237,173.908051 
	C645.982849,173.908051 657.608704,173.907074 669.234497,173.908371 
	C677.927917,173.909332 678.179993,174.159470 678.183899,182.958984 
	C678.189514,195.455841 678.201233,207.952744 678.179016,220.449554 
	C678.166626,227.381302 677.423645,228.085159 670.325806,228.089828 
	C658.509155,228.097626 646.692505,228.091949 635.537476,228.091949 
	C631.255737,239.343384 628.073730,250.613968 622.874695,260.861206 
	C600.843262,304.285217 565.094177,328.996246 517.052307,335.708221 
	C508.383362,336.919342 499.416260,335.996246 490.101837,336.051758 
M545.832520,323.439606 
	C598.689880,304.270172 639.494141,249.959473 630.099426,182.069153 
	C619.815735,107.754417 545.847229,53.616226 465.868134,75.738861 
	C398.603119,94.344719 358.161530,163.322327 374.978455,231.242783 
	C387.511902,281.863037 420.515167,313.866821 470.401978,327.479889 
	C495.249847,334.260315 520.576233,332.400909 545.832520,323.439606 
M660.499878,179.536072 
	C652.251038,179.536072 644.002197,179.536072 636.345642,179.536072 
	C636.345642,194.244293 636.345642,208.119766 636.345642,222.053528 
	C648.244019,222.053528 660.281372,222.053528 672.273071,222.053528 
	C672.273071,207.759689 672.273071,193.879623 672.273071,179.535995 
	C668.428772,179.535995 664.965515,179.535995 660.499878,179.536072 
z"/>
<path fill="#F5F9F9" opacity="1.000000" stroke="none" 
	d="
M264.463196,312.435608 
	C197.205917,359.168823 106.084633,338.098267 66.950768,266.629791 
	C34.030426,206.508804 50.575138,127.063736 112.707954,87.795021 
	C156.730042,59.972511 203.080734,57.942276 249.004974,81.742844 
	C290.780670,103.393425 315.599609,139.071701 320.522583,186.035736 
	C325.975891,238.059082 306.999359,280.612610 264.463196,312.435608 
M59.582794,232.667969 
	C77.184258,307.383301 158.567459,350.909668 230.469925,324.063995 
	C302.810516,297.054718 337.001190,215.907333 303.711853,146.652893 
	C280.684540,98.747406 241.361221,73.213898 187.751450,72.083664 
	C140.582321,71.089233 103.751198,91.443802 77.495193,130.148926 
	C56.500542,161.098038 51.456177,195.482605 59.582794,232.667969 
z"/>
<path fill="#F5F8F9" opacity="1.000000" stroke="none" 
	d="
M872.104065,70.011963 
	C927.744690,86.423141 962.539368,122.529549 972.361511,179.302750 
	C984.239014,247.955933 943.563599,307.157410 886.498474,327.904083 
	C807.209229,356.730560 723.118591,310.424713 706.816406,227.792999 
	C696.197083,173.965683 713.612427,128.607895 756.657654,94.419250 
	C790.598328,67.461960 829.607178,60.523849 872.104065,70.011963 
M820.675232,72.931519 
	C806.819397,74.625595 793.634094,78.733643 781.314209,85.131828 
	C729.466431,112.058456 702.495300,163.765076 711.053284,221.579727 
	C721.223938,290.288025 786.107544,341.027283 859.197693,329.536652 
	C932.844604,317.958557 979.267883,249.196594 967.097656,179.065094 
	C955.724243,113.526123 894.561340,63.257149 820.675232,72.931519 
z"/>
<path fill="#1B6878" opacity="1.000000" stroke="none" 
	d="
M545.473694,323.598938 
	C520.576233,332.400909 495.249847,334.260315 470.401978,327.479889 
	C420.515167,313.866821 387.511902,281.863037 374.978455,231.242783 
	C358.161530,163.322327 398.603119,94.344719 465.868134,75.738861 
	C545.847229,53.616226 619.815735,107.754417 630.099426,182.069153 
	C639.494141,249.959473 598.689880,304.270172 545.473694,323.598938 
M615.603455,231.004745 
	C619.661987,217.014389 620.446045,202.550034 618.648499,188.379532 
	C612.849365,142.661667 588.706909,109.326126 546.015869,92.163994 
	C503.958679,75.256660 463.308929,80.883781 427.682648,109.731277 
	C392.731628,138.031937 378.473450,175.777649 385.509613,219.915466 
	C396.034454,285.938110 457.472046,329.187164 523.119873,316.604767 
	C570.579651,307.508362 601.221130,278.133850 615.603455,231.004745 
z"/>
<path fill="#196777" opacity="1.000000" stroke="none" 
	d="
M661.001038,179.536041 
	C664.965515,179.535995 668.428772,179.535995 672.273071,179.535995 
	C672.273071,193.879623 672.273071,207.759689 672.273071,222.053528 
	C660.281372,222.053528 648.244019,222.053528 636.345642,222.053528 
	C636.345642,208.119766 636.345642,194.244293 636.345642,179.536072 
	C644.002197,179.536072 652.251038,179.536072 661.001038,179.536041 
z"/>
<path fill="#176575" opacity="1.000000" stroke="none" 
	d="
M59.447544,232.275665 
	C51.456177,195.482605 56.500542,161.098038 77.495193,130.148926 
	C103.751198,91.443802 140.582321,71.089233 187.751450,72.083664 
	C241.361221,73.213898 280.684540,98.747406 303.711853,146.652893 
	C337.001190,215.907333 302.810516,297.054718 230.469925,324.063995 
	C158.567459,350.909668 77.184258,307.383301 59.447544,232.275665 
M186.782791,183.230255 
	C184.241730,167.574097 176.065231,156.326080 161.009552,150.436203 
	C174.221298,157.879303 183.426743,168.144104 184.052307,183.918274 
	C173.898285,184.922150 167.231720,193.051041 168.001007,203.490509 
	C168.710846,213.123093 176.784378,219.804031 187.229752,219.402496 
	C197.059494,219.024628 204.085953,211.577957 204.035706,201.591507 
	C203.985580,191.630096 196.866714,184.212387 186.782791,183.230255 
z"/>
<path fill="#176676" opacity="1.000000" stroke="none" 
	d="
M821.119080,72.890465 
	C894.561340,63.257149 955.724243,113.526123 967.097656,179.065094 
	C979.267883,249.196594 932.844604,317.958557 859.197693,329.536652 
	C786.107544,341.027283 721.223938,290.288025 711.053284,221.579727 
	C702.495300,163.765076 729.466431,112.058456 781.314209,85.131828 
	C793.634094,78.733643 806.819397,74.625595 821.119080,72.890465 
M823.783020,142.276154 
	C827.937500,146.989319 832.216797,151.598984 836.225342,156.433182 
	C855.856262,180.107605 861.398926,206.240692 848.879761,234.965424 
	C845.386719,242.980026 840.213928,250.254166 836.015686,257.978882 
	C835.398865,259.113708 835.919128,260.866516 835.913269,262.333374 
	C837.334412,262.084229 839.459900,262.348816 840.072083,261.509583 
	C850.885681,246.684158 859.253479,230.715973 860.970093,212.086365 
	C863.713318,182.316559 849.237427,160.106857 829.011047,140.530899 
	C826.779480,138.371017 824.956543,138.486267 823.783020,142.276154 
M781.268799,257.799896 
	C781.389465,259.493744 781.510071,261.187622 781.630737,262.881470 
	C783.097473,262.186981 784.833252,261.780609 785.963013,260.725342 
	C787.390137,259.392395 788.366150,257.558899 789.462769,255.892593 
	C800.091980,239.742752 807.314697,222.401215 806.560974,202.688736 
	C805.578308,176.992035 791.861023,157.738358 774.079651,140.771240 
	C773.264587,139.993484 771.296265,140.424362 769.865051,140.292313 
	C769.979004,141.736771 769.540039,143.650604 770.300293,144.546326 
	C774.063416,148.979385 778.404663,152.931305 782.064392,157.440567 
	C794.981323,173.356171 802.577576,191.127991 800.381470,212.157318 
	C798.618469,229.039825 791.236389,243.571945 781.268799,257.799896 
M916.022339,209.429214 
	C915.859192,205.776459 915.960571,202.089218 915.489746,198.476562 
	C912.535767,175.809250 899.980225,158.531403 884.025208,143.269501 
	C883.035828,142.323074 880.985107,142.486069 879.428284,142.132874 
	C879.703979,143.813446 879.423279,145.948029 880.356689,147.091827 
	C883.507080,150.952560 887.276428,154.304520 890.474731,158.130508 
	C910.147766,181.664093 916.257324,207.716354 903.827515,236.576813 
	C900.305237,244.755005 894.991821,252.151520 890.752380,260.042175 
	C890.111206,261.235474 890.851807,263.171112 890.953247,264.763428 
	C892.348206,264.341034 894.371338,264.368774 895.044556,263.429230 
	C906.446045,247.517212 915.013977,230.438080 916.022339,209.429214 
z"/>
<path fill="#F7FAFA" opacity="1.000000" stroke="none" 
	d="
M615.463501,231.390091 
	C601.221130,278.133850 570.579651,307.508362 523.119873,316.604767 
	C457.472046,329.187164 396.034454,285.938110 385.509613,219.915466 
	C378.473450,175.777649 392.731628,138.031937 427.682648,109.731277 
	C463.308929,80.883781 503.958679,75.256660 546.015869,92.163994 
	C588.706909,109.326126 612.849365,142.661667 618.648499,188.379532 
	C620.446045,202.550034 619.661987,217.014389 615.463501,231.390091 
M480.675049,91.953072 
	C428.433899,101.743256 384.083008,150.275864 391.436035,214.244919 
	C398.799011,278.300720 458.872833,322.276489 521.882507,309.966370 
	C566.405396,301.267975 596.268677,274.306732 608.267700,230.889267 
	C620.223206,187.629074 609.187500,148.948883 575.567017,118.334854 
	C548.899658,94.052185 517.028442,85.937286 480.675049,91.953072 
z"/>
<path fill="#EDF3F5" opacity="1.000000" stroke="none" 
	d="
M187.102570,183.947495 
	C196.866714,184.212387 203.985580,191.630096 204.035706,201.591507 
	C204.085953,211.577957 197.059494,219.024628 187.229752,219.402496 
	C176.784378,219.804031 168.710846,213.123093 168.001007,203.490509 
	C167.231720,193.051041 173.898285,184.922150 184.825958,183.959503 
	C186.100601,183.982986 186.601578,183.965240 187.102570,183.947495 
M183.093994,216.837372 
	C184.087509,216.880859 185.081573,216.971939 186.074432,216.960190 
	C193.010254,216.878220 198.363617,213.108749 200.496262,206.831558 
	C202.681213,200.400406 200.524307,193.319107 195.209122,189.473297 
	C190.042450,185.734924 182.179016,185.675827 177.029526,189.318954 
	C171.649826,193.124969 170.140793,198.582520 171.131378,204.663467 
	C172.153900,210.940247 176.119202,214.945541 183.093994,216.837372 
z"/>
<path fill="#CCDEE1" opacity="1.000000" stroke="none" 
	d="
M186.942688,183.588867 
	C186.601578,183.965240 186.100601,183.982986 185.224960,183.961365 
	C183.426743,168.144104 174.221298,157.879303 161.009552,150.436203 
	C176.065231,156.326080 184.241730,167.574097 186.942688,183.588867 
z"/>
<path fill="#F5F8F9" opacity="1.000000" stroke="none" 
	d="
M823.779419,141.938934 
	C824.956543,138.486267 826.779480,138.371017 829.011047,140.530899 
	C849.237427,160.106857 863.713318,182.316559 860.970093,212.086365 
	C859.253479,230.715973 850.885681,246.684158 840.072083,261.509583 
	C839.459900,262.348816 837.334412,262.084229 835.913269,262.333374 
	C835.919128,260.866516 835.398865,259.113708 836.015686,257.978882 
	C840.213928,250.254166 845.386719,242.980026 848.879761,234.965424 
	C861.398926,206.240692 855.856262,180.107605 836.225342,156.433182 
	C832.216797,151.598984 827.937500,146.989319 823.779419,141.938934 
z"/>
<path fill="#F4F8F9" opacity="1.000000" stroke="none" 
	d="
M781.487549,257.512238 
	C791.236389,243.571945 798.618469,229.039825 800.381470,212.157318 
	C802.577576,191.127991 794.981323,173.356171 782.064392,157.440567 
	C778.404663,152.931305 774.063416,148.979385 770.300293,144.546326 
	C769.540039,143.650604 769.979004,141.736771 769.865051,140.292313 
	C771.296265,140.424362 773.264587,139.993484 774.079651,140.771240 
	C791.861023,157.738358 805.578308,176.992035 806.560974,202.688736 
	C807.314697,222.401215 800.091980,239.742752 789.462769,255.892593 
	C788.366150,257.558899 787.390137,259.392395 785.963013,260.725342 
	C784.833252,261.780609 783.097473,262.186981 781.630737,262.881470 
	C781.510071,261.187622 781.389465,259.493744 781.487549,257.512238 
z"/>
<path fill="#F6F9F9" opacity="1.000000" stroke="none" 
	d="
M916.008179,209.910095 
	C915.013977,230.438080 906.446045,247.517212 895.044556,263.429230 
	C894.371338,264.368774 892.348206,264.341034 890.953247,264.763428 
	C890.851807,263.171112 890.111206,261.235474 890.752380,260.042175 
	C894.991821,252.151520 900.305237,244.755005 903.827515,236.576813 
	C916.257324,207.716354 910.147766,181.664093 890.474731,158.130508 
	C887.276428,154.304520 883.507080,150.952560 880.356689,147.091827 
	C879.423279,145.948029 879.703979,143.813446 879.428223,142.132874 
	C880.985107,142.486069 883.035828,142.323074 884.025208,143.269501 
	C899.980225,158.531403 912.535767,175.809250 915.489746,198.476562 
	C915.960571,202.089218 915.859192,205.776459 916.008179,209.910095 
z"/>
<path fill="#166575" opacity="1.000000" stroke="none" 
	d="
M481.102692,91.889275 
	C517.028442,85.937286 548.899658,94.052185 575.567017,118.334854 
	C609.187500,148.948883 620.223206,187.629074 608.267700,230.889267 
	C596.268677,274.306732 566.405396,301.267975 521.882507,309.966370 
	C458.872833,322.276489 398.799011,278.300720 391.436035,214.244919 
	C384.083008,150.275864 428.433899,101.743256 481.102692,91.889275 
z"/>
<path fill="#196777" opacity="1.000000" stroke="none" 
	d="
M182.690155,216.758270 
	C176.119202,214.945541 172.153900,210.940247 171.131378,204.663467 
	C170.140793,198.582520 171.649826,193.124969 177.029526,189.318954 
	C182.179016,185.675827 190.042450,185.734924 195.209122,189.473297 
	C200.524307,193.319107 202.681213,200.400406 200.496262,206.831558 
	C198.363617,213.108749 193.010254,216.878220 186.074432,216.960190 
	C185.081573,216.971939 184.087509,216.880859 182.690155,216.758270 
z"/>
</svg>