<svg version="1.1" id="Layer_1" xmlns="http://www.w3.org/2000/svg" xmlns:xlink="http://www.w3.org/1999/xlink" x="0px" y="0px"
	 width="100%" viewBox="0 0 1500 2000" enable-background="new 0 0 1500 2000" xml:space="preserve">
<path fill="#166575" opacity="1.000000" stroke="none" 
	d="
M1501.000000,702.000000 
	C1501.000000,1135.333252 1501.000000,1568.166382 1501.000000,2000.999756 
	C1001.000305,2000.999756 501.000549,2000.999756 1.000626,2000.999878 
	C1.000417,1334.333862 1.000417,667.667603 1.000209,1.001073 
	C500.999390,1.000715 1000.998779,1.000715 1500.999023,1.000358 
	C1501.000000,234.500000 1501.000000,468.000000 1501.000000,702.000000 
M888.454285,432.104309 
	C893.409180,418.950409 898.364075,405.796478 903.554321,392.017700 
	C917.922424,392.017700 933.400940,392.021881 948.879456,392.015717 
	C955.371521,392.013153 956.728027,390.707123 956.740479,384.156921 
	C956.773438,366.830048 956.773926,349.503021 956.738525,332.176178 
	C956.725403,325.755219 955.576965,324.628265 949.117371,324.613342 
	C934.955994,324.580627 920.792053,324.459442 906.634766,324.701355 
	C903.001770,324.763397 901.900635,323.378998 900.997498,320.170105 
	C898.569336,311.542328 896.253540,302.814636 892.909485,294.523315 
	C856.898254,205.236115 750.751465,164.522644 664.140198,206.620987 
	C594.022400,240.702560 556.782654,317.083221 572.967834,393.960602 
	C589.388123,471.954803 662.736938,534.792603 754.083008,525.435791 
	C814.949890,519.200989 859.627014,487.080963 888.454285,432.104309 
M419.163879,207.438293 
	C372.750244,186.257904 325.781433,184.736328 278.901947,205.093369 
	C208.007050,235.878967 167.436340,310.881744 180.225357,386.760925 
	C195.858810,479.516479 283.831116,542.733215 379.485992,523.933289 
	C459.571442,508.193390 521.998291,434.496155 513.481140,343.801819 
	C507.657806,281.792847 475.081940,236.582901 419.163879,207.438293 
M1086.903076,511.468506 
	C1120.640381,526.833130 1155.838379,530.275635 1191.839966,522.669800 
	C1281.035156,503.825989 1338.492798,415.854004 1320.843628,325.961395 
	C1299.966064,219.625092 1183.544312,160.374527 1085.131226,206.692795 
	C1023.706482,235.602386 981.705505,298.397034 989.474792,375.241333 
	C995.833923,438.138550 1029.617065,483.176453 1086.903076,511.468506 
M320.712219,1567.841309 
	C315.087860,1565.860840 309.554810,1562.526367 303.822968,1562.139893 
	C281.623138,1560.643066 259.359985,1560.085083 236.792557,1559.164062 
	C236.792557,1601.161743 236.792557,1641.906616 236.792557,1682.138550 
	C257.491425,1682.138550 278.042694,1683.420532 298.367645,1681.822754 
	C325.408752,1679.697144 346.003998,1660.523438 350.938507,1635.847778 
	C356.708618,1606.993774 345.975616,1582.393311 320.712219,1567.841309 
M1209.567993,1671.845947 
	C1206.800537,1671.845947 1204.033081,1671.845947 1201.297363,1671.845947 
	C1201.297363,1656.255127 1201.297363,1641.340332 1201.297363,1625.899414 
	C1222.469482,1625.899414 1243.352173,1625.899414 1264.168701,1625.899414 
	C1264.168701,1621.979614 1264.168701,1618.606934 1264.168701,1614.905029 
	C1242.977051,1614.905029 1222.204468,1614.905029 1201.374023,1614.905029 
	C1201.374023,1600.210815 1201.374023,1585.859863 1201.374023,1571.019287 
	C1225.135864,1571.019287 1248.529297,1571.019287 1271.827148,1571.019287 
	C1271.827148,1567.117554 1271.827148,1563.720581 1271.827148,1560.389160 
	C1243.725708,1560.389160 1215.995483,1560.389160 1188.376953,1560.389160 
	C1188.376953,1601.436890 1188.376953,1642.151367 1188.376953,1682.740234 
	C1217.355103,1682.740234 1245.955444,1682.740234 1274.686279,1682.740234 
	C1274.686279,1679.070557 1274.686279,1675.667236 1274.686279,1671.845947 
	C1253.132690,1671.845947 1231.842773,1671.845947 1209.567993,1671.845947 
M763.664734,1649.013306 
	C758.558044,1660.161499 753.451294,1671.309692 748.092773,1683.007690 
	C751.583374,1683.007690 754.406860,1682.783447 757.178772,1683.065796 
	C760.462524,1683.400024 762.138489,1682.308228 763.449890,1679.123169 
	C766.990356,1670.524536 771.131836,1662.174805 774.765076,1653.611694 
	C775.921875,1650.885254 777.401489,1650.027588 780.307312,1650.045654 
	C800.459839,1650.171265 820.613708,1650.161743 840.766479,1650.054810 
	C843.587524,1650.039795 845.241394,1650.671631 846.389893,1653.507324 
	C848.945374,1659.816895 851.932373,1665.951538 854.729431,1672.163696 
	C859.777893,1683.376221 859.773804,1683.380615 871.907715,1682.922852 
	C872.156128,1682.913452 872.394348,1682.632202 872.866089,1682.332275 
	C872.094177,1680.572998 871.328979,1678.764038 870.512939,1676.978394 
	C853.384094,1639.498413 836.174011,1602.055054 819.232300,1564.490723 
	C817.525452,1560.705933 815.453125,1559.683960 811.712646,1559.994995 
	C807.934387,1560.308838 804.394592,1559.190552 802.106018,1564.358276 
	C789.659607,1592.463257 776.722534,1620.350708 763.664734,1649.013306 
M503.683502,1618.719482 
	C495.391541,1600.582764 486.851105,1582.552979 478.969727,1564.239624 
	C476.805054,1559.209717 473.411469,1560.204468 469.765747,1560.025635 
	C466.311646,1559.855957 463.791931,1560.137939 462.009918,1564.137451 
	C450.443756,1590.095703 438.531067,1615.899414 426.722107,1641.749268 
	C420.522858,1655.319458 414.303711,1668.880615 407.836304,1683.007690 
	C411.081146,1683.007690 413.737793,1682.699951 416.292877,1683.078247 
	C420.329346,1683.675659 422.120575,1681.913696 423.594757,1678.324829 
	C427.065948,1669.874023 431.107941,1661.659058 434.698761,1653.254639 
	C435.698792,1650.914185 436.895813,1650.042969 439.467468,1650.055786 
	C459.957062,1650.157959 480.447754,1650.171143 500.937042,1650.043091 
	C503.718201,1650.025757 505.029480,1650.931641 506.105896,1653.441406 
	C509.904724,1662.298340 514.044617,1671.008911 517.854370,1679.861450 
	C518.846069,1682.165649 519.979553,1683.253174 522.592834,1683.063965 
	C525.841797,1682.828613 529.120667,1683.007568 533.005066,1683.007568 
	C523.136475,1661.390625 513.555481,1640.403809 503.683502,1618.719482 
M631.597900,1677.081787 
	C632.478394,1679.035034 633.358887,1680.988281 634.270447,1683.010376 
	C637.310242,1683.010376 640.165039,1682.762573 642.957031,1683.075317 
	C646.199158,1683.438477 647.587341,1681.975708 648.816162,1679.184082 
	C665.686584,1640.859375 682.668640,1602.583740 699.605469,1564.288086 
	C700.157349,1563.040405 700.520752,1561.709473 701.062500,1560.158569 
	C696.459106,1560.158569 692.475769,1560.158569 688.252869,1560.158569 
	C672.585815,1595.385864 656.919373,1630.611694 640.843750,1666.757690 
	C624.818909,1630.408325 609.339050,1595.295044 593.909790,1560.296631 
	C589.204895,1560.296631 584.801880,1560.296631 579.881165,1560.296631 
	C597.112427,1599.268799 614.166077,1637.839233 631.597900,1677.081787 
M939.838196,1573.524902 
	C939.838196,1609.941040 939.838196,1646.357300 939.838196,1682.701904 
	C967.387573,1682.701904 994.303772,1682.701904 1021.313171,1682.701904 
	C1021.313171,1678.994385 1021.313171,1675.599243 1021.313171,1671.764526 
	C998.420105,1671.764526 975.836609,1671.764526 952.787537,1671.764526 
	C952.787537,1634.395996 952.787537,1597.471802 952.787537,1560.317139 
	C948.259277,1560.317139 944.204224,1560.317139 939.838196,1560.317139 
	C939.838196,1564.565063 939.838196,1568.551514 939.838196,1573.524902 
M1088.999878,1640.500000 
	C1088.999878,1654.590210 1088.999878,1668.680298 1088.999878,1682.644531 
	C1093.714844,1682.644531 1097.774170,1682.644531 1101.763916,1682.644531 
	C1101.763916,1641.694824 1101.763916,1601.103394 1101.763916,1560.343018 
	C1097.468018,1560.343018 1093.414062,1560.343018 1088.999878,1560.343018 
	C1088.999878,1586.918213 1088.999878,1613.209106 1088.999878,1640.500000 
M815.766663,1784.615967 
	C805.701477,1780.801025 796.686218,1782.439575 788.667908,1790.657104 
	C788.393066,1787.604492 788.192200,1785.374023 787.996216,1783.197510 
	C785.987732,1783.197510 784.371887,1783.197510 782.559937,1783.197510 
	C782.559937,1804.162964 782.559937,1824.903442 782.559937,1845.830688 
	C784.613953,1845.830688 786.396179,1845.830688 788.885376,1845.830688 
	C788.885376,1837.860962 788.885376,1830.041870 788.885376,1823.002930 
	C793.456360,1825.119995 797.539062,1828.017822 802.016052,1828.889038 
	C813.764954,1831.174805 823.909302,1825.212402 827.593140,1814.807373 
	C831.824829,1802.854614 827.460205,1791.139282 815.766663,1784.615967 
M281.307465,1785.079346 
	C270.965637,1780.815552 261.602386,1781.921021 252.903259,1791.306641 
	C252.903259,1781.493896 252.903259,1772.826172 252.903259,1764.276611 
	C250.654755,1764.276611 249.040543,1764.276611 247.184509,1764.276611 
	C247.184509,1785.861328 247.184509,1807.231812 247.184509,1828.744629 
	C249.117722,1828.744629 250.848526,1828.744629 252.725220,1828.744629 
	C252.894287,1826.169434 253.046921,1823.844727 253.120728,1822.720581 
	C257.713898,1824.859863 262.049164,1827.982056 266.802795,1828.873657 
	C278.335144,1831.036499 288.245056,1825.104370 291.979492,1814.933594 
	C296.166504,1803.530029 292.268524,1792.034912 281.307465,1785.079346 
M503.928864,1813.150513 
	C503.551819,1811.578003 503.174744,1810.005615 502.656555,1807.844604 
	C515.782166,1807.844604 528.335266,1807.844604 540.833069,1807.844604 
	C541.861267,1795.572754 535.268921,1785.815186 524.586304,1783.253784 
	C513.500793,1780.595703 502.499298,1786.048950 498.313263,1796.277100 
	C493.733368,1807.467407 497.760925,1820.115479 507.500183,1826.091064 
	C515.982727,1831.295654 532.719727,1830.440186 538.091248,1821.617310 
	C537.078430,1820.513672 536.004517,1819.343506 534.950378,1818.194824 
	C523.187805,1827.318237 510.897552,1825.505615 503.928864,1813.150513 
M326.541626,1788.665527 
	C338.991669,1786.561157 344.926361,1791.293823 343.856964,1803.312012 
	C337.473267,1803.312012 330.954803,1802.769531 324.565765,1803.447144 
	C316.249786,1804.328979 311.889282,1809.312744 312.017273,1816.307495 
	C312.144836,1823.278931 317.384827,1828.283203 325.419342,1829.169922 
	C332.359955,1829.935669 338.781830,1828.791748 344.256409,1823.120728 
	C344.651398,1825.765015 344.884216,1827.323486 345.104370,1828.797363 
	C347.067108,1828.797363 348.681671,1828.797363 350.242249,1828.797363 
	C350.242249,1817.782593 350.474518,1806.993164 350.143890,1796.220825 
	C349.979523,1790.865112 346.970673,1786.582031 341.898895,1784.652832 
	C331.874817,1780.839844 322.440308,1782.409424 313.296295,1788.713501 
	C314.292542,1790.389282 315.093140,1791.735840 315.743195,1792.829346 
	C319.356262,1791.394897 322.552460,1790.125977 326.541626,1788.665527 
M1127.401367,1826.014404 
	C1128.919434,1824.781372 1130.437378,1823.548462 1132.198853,1822.117676 
	C1130.891479,1820.588867 1129.850830,1819.372070 1128.744751,1818.078613 
	C1121.627441,1824.377930 1113.839722,1825.774048 1105.508789,1821.778931 
	C1100.054443,1819.163208 1097.055542,1814.587280 1096.755859,1807.982422 
	C1103.430054,1807.982422 1109.745117,1807.982422 1116.060181,1807.982422 
	C1122.328979,1807.982422 1128.597656,1807.982422 1134.983398,1807.982422 
	C1135.227051,1797.952637 1132.229736,1790.111450 1123.734863,1785.501587 
	C1115.639893,1781.108521 1107.279053,1781.439209 1099.661133,1786.779175 
	C1091.966431,1792.172852 1089.292725,1800.129639 1090.503174,1809.144165 
	C1092.801514,1826.259277 1110.026001,1834.322998 1127.401367,1826.014404 
M1266.763062,1826.380981 
	C1268.545898,1824.992432 1270.328857,1823.603882 1272.349487,1822.030151 
	C1270.809448,1820.415894 1269.705688,1819.259033 1268.618408,1818.119385 
	C1261.010254,1824.414917 1252.594971,1825.657349 1245.237305,1821.742188 
	C1239.777100,1818.836548 1236.813232,1813.750122 1237.402710,1807.844238 
	C1249.795410,1807.844238 1262.231201,1807.844238 1275.591309,1807.844238 
	C1274.730591,1803.637817 1274.441284,1799.805298 1273.146362,1796.349487 
	C1269.292603,1786.064941 1258.709595,1780.785278 1247.528076,1783.160645 
	C1237.188843,1785.357056 1229.924316,1795.100708 1230.186401,1806.420532 
	C1230.456909,1818.097412 1238.445068,1827.934570 1249.584961,1828.823120 
	C1255.012207,1829.255981 1260.611328,1827.532227 1266.763062,1826.380981 
M853.019775,1826.561646 
	C862.556396,1831.274536 871.496643,1830.446167 879.818298,1823.128174 
	C879.916016,1825.314941 879.989197,1826.952148 880.071777,1828.800659 
	C881.970642,1828.800659 883.726746,1828.800659 885.764832,1828.800659 
	C885.764832,1818.150757 886.062744,1807.683960 885.650513,1797.244995 
	C885.412109,1791.207153 882.259277,1786.193848 876.278320,1784.244873 
	C866.551514,1781.074951 857.324768,1782.490845 848.582214,1788.758545 
	C849.546875,1790.372437 850.360901,1791.734497 851.221191,1793.173828 
	C858.918945,1788.577637 866.691895,1785.641602 874.939697,1790.340210 
	C879.532410,1792.956787 879.904968,1797.783691 879.434204,1802.614502 
	C872.255493,1802.979248 865.266785,1803.046509 858.348389,1803.778809 
	C852.985535,1804.346436 849.074829,1807.353027 847.730835,1812.908325 
	C846.424744,1818.307251 847.960327,1822.750977 853.019775,1826.561646 
M412.607605,1782.992554 
	C411.055664,1783.790283 409.257233,1784.310303 407.992981,1785.432251 
	C401.267914,1791.400513 394.682587,1797.525879 388.034332,1803.581177 
	C386.664764,1804.828369 385.232697,1806.007080 382.963013,1807.964600 
	C382.963013,1792.570679 382.963013,1778.498779 382.963013,1764.329590 
	C380.796265,1764.329590 379.066345,1764.329590 377.241333,1764.329590 
	C377.241333,1785.988281 377.241333,1807.378052 377.241333,1828.713623 
	C379.290009,1828.713623 381.031219,1828.713623 382.622528,1828.713623 
	C383.069977,1824.018433 382.386749,1819.082886 384.215576,1815.391968 
	C386.053619,1811.682373 390.392609,1809.212158 393.906799,1805.946777 
	C399.256226,1812.575562 404.532776,1818.577393 409.156952,1825.045654 
	C411.918762,1828.908936 415.001434,1829.682617 419.699066,1828.532349 
	C412.586517,1819.504761 405.727844,1810.799438 399.206512,1802.522217 
	C405.239868,1795.904053 411.014648,1789.569580 416.865112,1783.151978 
	C415.862671,1783.106079 414.617737,1783.048950 412.607605,1782.992554 
M454.758514,1799.273071 
	C451.784180,1801.920776 448.809814,1804.568481 444.883118,1808.063965 
	C444.883118,1792.503052 444.883118,1778.421387 444.883118,1764.372803 
	C442.720642,1764.372803 440.990143,1764.372803 439.282227,1764.372803 
	C439.282227,1786.078979 439.282227,1807.472656 439.282227,1829.062988 
	C441.384735,1828.957642 443.131409,1828.870239 445.664001,1828.743408 
	C442.363403,1817.854126 447.842072,1811.520752 456.257965,1806.371582 
	C461.335236,1812.665405 466.609528,1818.679932 471.247864,1825.150269 
	C474.019836,1829.017212 477.052979,1829.775757 481.573334,1828.385132 
	C474.520935,1819.423584 467.661346,1810.707031 461.209595,1802.508789 
	C467.273376,1795.805786 473.021881,1789.451416 478.662018,1783.216797 
	C475.082825,1782.320068 471.872314,1783.151367 468.864807,1786.259521 
	C464.586884,1790.680298 459.839630,1794.646973 454.758514,1799.273071 
M1002.618408,1803.137695 
	C1000.535461,1802.589600 998.056030,1802.562988 996.471985,1801.358765 
	C994.577881,1799.918945 992.290894,1797.461060 992.309937,1795.464478 
	C992.329529,1793.403564 994.540100,1790.822876 996.488770,1789.481934 
	C998.232849,1788.281738 1000.987854,1787.898926 1003.186401,1788.144409 
	C1008.031616,1788.685669 1012.807129,1789.850586 1017.979370,1790.830811 
	C1018.459045,1789.932495 1019.204468,1788.536377 1020.119751,1786.822388 
	C1011.537903,1782.342651 1003.010498,1781.387573 994.264221,1784.331787 
	C989.821228,1785.827637 986.527527,1788.890381 985.892578,1793.959717 
	C985.061951,1800.591187 987.922913,1805.003906 994.754272,1806.969238 
	C1000.009216,1808.480957 1005.527344,1809.178955 1010.639465,1811.035034 
	C1012.621582,1811.754639 1015.150452,1814.763916 1015.017212,1816.550415 
	C1014.852295,1818.762451 1012.493835,1821.192749 1010.481750,1822.753906 
	C1009.089355,1823.834351 1006.600586,1824.138062 1004.739380,1823.861694 
	C998.639771,1822.955688 992.603149,1821.625977 985.982788,1820.351562 
	C985.731201,1820.800659 984.953735,1822.188477 984.201294,1823.531738 
	C992.103210,1829.812012 1006.935486,1831.316895 1015.140137,1826.820190 
	C1019.636536,1824.355835 1022.040100,1820.583862 1021.688354,1815.412354 
	C1021.342468,1810.326294 1018.332764,1807.207031 1013.577759,1805.812256 
	C1010.236694,1804.832031 1006.814026,1804.129883 1002.618408,1803.137695 
M1063.739624,1822.526123 
	C1054.978760,1825.728760 1046.873657,1823.532471 1038.896851,1819.098145 
	C1038.008179,1820.801147 1037.273315,1822.209229 1036.569214,1823.558228 
	C1044.492676,1829.997559 1059.931885,1831.648926 1067.789307,1826.337036 
	C1070.508545,1824.498901 1072.853394,1820.962280 1073.704590,1817.759155 
	C1075.182739,1812.196167 1071.907837,1807.689941 1065.747559,1805.820312 
	C1060.355713,1804.183960 1054.635376,1803.537231 1049.379395,1801.591309 
	C1047.209595,1800.787964 1044.413208,1797.640625 1044.534180,1795.725708 
	C1044.680542,1793.412720 1047.317017,1790.891235 1049.460571,1789.202148 
	C1050.834351,1788.119751 1053.325806,1787.892700 1055.209351,1788.130127 
	C1060.053833,1788.740723 1064.838745,1789.823486 1070.209595,1790.822021 
	C1070.630981,1790.020020 1071.427368,1788.504150 1072.213135,1787.008545 
	C1064.465210,1782.614502 1054.270630,1781.488037 1047.185913,1784.018677 
	C1041.106201,1786.190552 1037.850342,1790.496948 1037.976440,1796.200073 
	C1038.101807,1801.875122 1041.024292,1805.330078 1047.703491,1807.139282 
	C1052.347778,1808.397217 1057.169067,1809.025513 1061.777100,1810.388306 
	C1068.621338,1812.412476 1069.582520,1817.067749 1063.739624,1822.526123 
M924.260010,1823.641357 
	C922.795410,1821.977051 920.132568,1820.360718 920.063599,1818.640381 
	C919.661011,1808.592651 919.866211,1798.520630 919.866211,1788.068848 
	C924.494263,1788.068848 928.775574,1788.068848 933.109741,1788.068848 
	C933.109741,1786.238525 933.109741,1784.804321 933.109741,1782.898438 
	C928.472717,1782.898438 924.063843,1782.898438 919.576111,1782.898438 
	C919.408325,1779.351685 919.262817,1776.274170 919.104675,1772.930298 
	C916.925415,1773.030151 915.180664,1773.110229 912.949219,1773.212524 
	C912.949219,1776.638184 912.949219,1779.707520 912.949219,1783.141235 
	C910.008728,1783.141235 907.574341,1783.141235 904.946899,1783.141235 
	C905.037415,1785.005127 905.108459,1786.468628 905.182556,1787.995850 
	C907.871521,1788.137939 910.323669,1788.267456 913.111755,1788.414795 
	C913.111755,1797.339478 913.044434,1805.976807 913.127563,1814.612915 
	C913.252563,1827.607788 923.872192,1833.576782 935.141174,1827.029419 
	C935.519348,1826.809570 935.731018,1826.302979 936.128662,1825.790527 
	C935.529236,1824.610352 934.945618,1823.461426 934.595398,1822.771851 
	C931.152588,1823.167480 928.102234,1823.517944 924.260010,1823.641357 
M640.470581,1845.140869 
	C646.562744,1842.261841 647.610596,1836.782471 647.636169,1830.905029 
	C647.700684,1816.084473 647.668640,1801.263184 647.639771,1786.442261 
	C647.637634,1785.353394 647.350220,1784.264893 647.206543,1783.254150 
	C645.116638,1783.254150 643.365540,1783.254150 641.196655,1783.254150 
	C641.196655,1785.344116 641.197266,1787.145996 641.196472,1788.947876 
	C641.189880,1803.435669 641.274841,1817.924438 641.137268,1832.411011 
	C641.069214,1839.574341 636.669373,1842.524902 629.807983,1840.350830 
	C628.730469,1840.009277 627.690002,1839.550903 626.317139,1839.025879 
	C625.698853,1840.655640 625.149475,1842.103760 624.523682,1843.753174 
	C629.655945,1846.727417 634.613464,1846.925781 640.470581,1845.140869 
M580.588745,1783.180420 
	C577.018616,1785.068359 573.448425,1786.956177 569.707947,1788.934082 
	C569.496582,1787.244629 569.243164,1785.218750 568.955383,1782.918091 
	C566.985413,1783.033203 565.264771,1783.133789 563.672302,1783.226929 
	C563.672302,1798.752808 563.672302,1813.776001 563.672302,1828.743408 
	C565.831482,1828.743408 567.584656,1828.743408 569.749390,1828.743408 
	C569.749390,1824.323975 569.733032,1820.191650 569.753906,1816.059570 
	C569.775818,1811.735229 569.654785,1807.400269 569.913147,1803.089111 
	C570.427734,1794.503784 575.160095,1789.689575 583.588867,1788.815552 
	C584.532715,1788.717651 585.461975,1788.479126 586.469238,1788.292725 
	C586.469238,1786.434937 586.469238,1784.845703 586.469238,1783.051392 
	C584.604675,1783.051392 582.975647,1783.051392 580.588745,1783.180420 
M1163.976440,1800.188721 
	C1165.893066,1791.672852 1171.976440,1788.616577 1180.059570,1788.471924 
	C1180.059570,1786.402344 1180.059570,1784.793457 1180.059570,1783.034546 
	C1173.113281,1782.151489 1168.010132,1785.365356 1162.924561,1790.828369 
	C1162.924561,1787.484863 1162.924561,1785.397217 1162.924561,1783.309692 
	C1160.830322,1783.309692 1159.107178,1783.309692 1157.397217,1783.309692 
	C1157.397217,1798.695190 1157.397217,1813.756226 1157.397217,1828.738037 
	C1159.494385,1828.738037 1161.251953,1828.738037 1163.846802,1828.738037 
	C1163.846802,1819.330200 1163.846802,1810.196045 1163.976440,1800.188721 
M963.300964,1807.500244 
	C963.300964,1799.410767 963.300964,1791.321167 963.300964,1783.288208 
	C960.901123,1783.288208 959.155273,1783.288208 957.395752,1783.288208 
	C957.395752,1798.662109 957.395752,1813.736328 957.395752,1828.734741 
	C959.481323,1828.734741 961.243896,1828.734741 963.300903,1828.734741 
	C963.300903,1821.807739 963.300903,1815.154053 963.300964,1807.500244 
M1201.722046,1821.346924 
	C1201.722046,1823.794922 1201.722046,1826.242920 1201.722046,1828.803467 
	C1203.954834,1828.803467 1205.718994,1828.803467 1207.579102,1828.803467 
	C1207.579102,1813.454956 1207.579102,1798.314453 1207.579102,1783.294067 
	C1205.478394,1783.294067 1203.735352,1783.294067 1201.722046,1783.294067 
	C1201.722046,1795.857422 1201.722046,1808.121460 1201.722046,1821.346924 
M614.062256,1804.500000 
	C614.062256,1797.404297 614.062256,1790.308716 614.062256,1782.953735 
	C611.691467,1783.061157 609.953979,1783.139771 608.255615,1783.216675 
	C608.255615,1798.671875 608.255615,1813.726318 608.255615,1829.034668 
	C610.318542,1828.941284 612.055054,1828.862671 614.062256,1828.771851 
	C614.062256,1820.761719 614.062256,1813.130859 614.062256,1804.500000 
M704.596130,1802.796387 
	C704.157288,1804.349121 703.718445,1805.901978 703.215210,1807.682739 
	C711.419128,1807.682739 718.770325,1807.682739 726.423462,1807.682739 
	C726.272949,1805.915039 726.152588,1804.501587 725.996277,1802.665527 
	C718.924011,1802.665527 712.170349,1802.665527 704.596130,1802.796387 
M1207.310913,1764.894409 
	C1204.133057,1763.180298 1201.488892,1764.146729 1200.670776,1767.376099 
	C1200.302490,1768.830078 1201.776611,1771.401978 1203.176147,1772.422241 
	C1204.100098,1773.095825 1207.459229,1772.351929 1207.823975,1771.462036 
	C1208.548584,1769.694458 1207.958130,1767.387817 1207.310913,1764.894409 
M614.584290,1771.237793 
	C614.458252,1769.292236 615.044556,1766.616699 614.007446,1765.604980 
	C612.952698,1764.575928 609.698242,1764.399658 608.515076,1765.302246 
	C607.355042,1766.187378 606.716675,1769.326172 607.396606,1770.721924 
	C608.757507,1773.515381 611.463867,1773.727905 614.584290,1771.237793 
M956.413574,1766.240234 
	C955.630249,1771.090088 958.333618,1774.475464 961.678162,1772.528687 
	C963.203186,1771.641113 964.734009,1768.218750 964.161926,1766.782593 
	C962.808533,1763.385132 959.820007,1763.166626 956.413574,1766.240234 
M644.492310,1764.003052 
	C640.066589,1765.646484 638.517273,1768.540527 641.015259,1771.033203 
	C642.092529,1772.108398 644.309937,1772.793335 645.775024,1772.496948 
	C647.015442,1772.245850 648.992554,1770.006714 648.755432,1769.207520 
	C648.193420,1767.313354 646.510071,1765.751953 644.492310,1764.003052 
z"/>
<path fill="#F6F9FA" opacity="1.000000" stroke="none" 
	d="
M888.285095,432.438354 
	C859.627014,487.080963 814.949890,519.200989 754.083008,525.435791 
	C662.736938,534.792603 589.388123,471.954803 572.967834,393.960602 
	C556.782654,317.083221 594.022400,240.702560 664.140198,206.620987 
	C750.751465,164.522644 856.898254,205.236115 892.909485,294.523315 
	C896.253540,302.814636 898.569336,311.542328 900.997498,320.170105 
	C901.900635,323.378998 903.001770,324.763397 906.634766,324.701355 
	C920.792053,324.459442 934.955994,324.580627 949.117371,324.613342 
	C955.576965,324.628265 956.725403,325.755219 956.738525,332.176178 
	C956.773926,349.503021 956.773438,366.830048 956.740479,384.156921 
	C956.728027,390.707123 955.371521,392.013153 948.879456,392.015717 
	C933.400940,392.021881 917.922424,392.017700 903.554321,392.017700 
	C898.364075,405.796478 893.409180,418.950409 888.285095,432.438354 
M637.915039,485.605255 
	C673.955688,513.230652 714.665405,523.864258 759.500061,518.086243 
	C839.979004,507.714630 907.904297,434.274139 897.580261,340.054260 
	C891.909241,288.298157 865.812744,248.041855 821.428589,220.642731 
	C755.912781,180.198715 672.298035,191.777725 619.557739,247.839127 
	C554.804565,316.669861 563.069275,426.768707 637.915039,485.605255 
M951.028564,339.551880 
	C951.028564,336.597809 951.028564,333.643738 951.028564,330.441467 
	C934.951721,330.441467 919.359436,330.441467 904.252319,330.441467 
	C904.252319,348.921326 904.252319,367.305450 904.252319,385.794006 
	C919.335022,385.794006 935.049438,385.794006 951.028564,385.794006 
	C951.028564,370.476105 951.028564,355.506195 951.028564,339.551880 
z"/>
<path fill="#F7FAFA" opacity="1.000000" stroke="none" 
	d="
M419.489624,207.624207 
	C475.081940,236.582901 507.657806,281.792847 513.481140,343.801819 
	C521.998291,434.496155 459.571442,508.193390 379.485992,523.933289 
	C283.831116,542.733215 195.858810,479.516479 180.225357,386.760925 
	C167.436340,310.881744 208.007050,235.878967 278.901947,205.093369 
	C325.781433,184.736328 372.750244,186.257904 419.489624,207.624207 
M367.453217,519.161377 
	C371.881287,518.410828 376.343628,517.820984 380.732330,516.885742 
	C454.886627,501.083923 515.927063,431.485260 506.626953,341.426239 
	C502.154480,298.115875 482.451111,262.186798 448.736664,234.433777 
	C410.908936,203.294754 367.177856,192.246704 319.235596,199.824890 
	C280.329285,205.974792 247.908386,225.025803 222.551315,255.273041 
	C193.994919,289.336609 181.949738,328.999298 185.371338,373.105316 
	C187.994659,406.921173 200.380829,437.223969 222.559784,462.945312 
	C260.523590,506.972687 308.962341,525.031372 367.453217,519.161377 
z"/>
<path fill="#F6F9FA" opacity="1.000000" stroke="none" 
	d="
M1086.561890,511.305817 
	C1029.617065,483.176453 995.833923,438.138550 989.474792,375.241333 
	C981.705505,298.397034 1023.706482,235.602386 1085.131226,206.692795 
	C1183.544312,160.374527 1299.966064,219.625092 1320.843628,325.961395 
	C1338.492798,415.854004 1281.035156,503.825989 1191.839966,522.669800 
	C1155.838379,530.275635 1120.640381,526.833130 1086.561890,511.305817 
M1272.896851,247.617249 
	C1247.769043,221.307556 1217.129761,204.843964 1181.326538,199.499496 
	C1142.571045,193.714325 1105.783203,200.559326 1071.993408,221.309708 
	C1019.425720,253.591583 988.324097,313.714539 996.414795,378.924225 
	C1001.438110,419.410492 1020.055664,452.911133 1050.439941,480.124268 
	C1097.777710,522.521545 1173.338501,532.488892 1229.209595,502.205017 
	C1286.674561,471.057159 1316.590088,422.423187 1316.890259,356.673035 
	C1317.081421,314.797089 1301.595215,278.820160 1272.896851,247.617249 
z"/>
<path fill="#FAFCFC" opacity="1.000000" stroke="none" 
	d="
M321.053101,1567.985840 
	C345.975616,1582.393311 356.708618,1606.993774 350.938507,1635.847778 
	C346.003998,1660.523438 325.408752,1679.697144 298.367645,1681.822754 
	C278.042694,1683.420532 257.491425,1682.138550 236.792557,1682.138550 
	C236.792557,1641.906616 236.792557,1601.161743 236.792557,1559.164062 
	C259.359985,1560.085083 281.623138,1560.643066 303.822968,1562.139893 
	C309.554810,1562.526367 315.087860,1565.860840 321.053101,1567.985840 
M310.359344,1667.081787 
	C332.030884,1657.021606 341.933197,1638.374756 338.965118,1613.214722 
	C336.581085,1593.005371 321.442566,1576.596191 299.604584,1573.060181 
	C287.070404,1571.030518 274.085785,1571.757202 261.301483,1571.313354 
	C257.543884,1571.182983 253.777939,1571.293213 249.951111,1571.293213 
	C249.951111,1605.162231 249.951111,1638.324341 249.951111,1671.449951 
	C264.334839,1671.449951 278.304382,1671.841309 292.233765,1671.263916 
	C298.080811,1671.021362 303.842896,1668.728394 310.359344,1667.081787 
z"/>
<path fill="#FEFEFE" opacity="1.000000" stroke="none" 
	d="
M1210.060547,1671.845947 
	C1231.842773,1671.845947 1253.132690,1671.845947 1274.686279,1671.845947 
	C1274.686279,1675.667236 1274.686279,1679.070557 1274.686279,1682.740234 
	C1245.955444,1682.740234 1217.355103,1682.740234 1188.376953,1682.740234 
	C1188.376953,1642.151367 1188.376953,1601.436890 1188.376953,1560.389160 
	C1215.995483,1560.389160 1243.725708,1560.389160 1271.827148,1560.389160 
	C1271.827148,1563.720581 1271.827148,1567.117554 1271.827148,1571.019287 
	C1248.529297,1571.019287 1225.135864,1571.019287 1201.374023,1571.019287 
	C1201.374023,1585.859863 1201.374023,1600.210815 1201.374023,1614.905029 
	C1222.204468,1614.905029 1242.977051,1614.905029 1264.168701,1614.905029 
	C1264.168701,1618.606934 1264.168701,1621.979614 1264.168701,1625.899414 
	C1243.352173,1625.899414 1222.469482,1625.899414 1201.297363,1625.899414 
	C1201.297363,1641.340332 1201.297363,1656.255127 1201.297363,1671.845947 
	C1204.033081,1671.845947 1206.800537,1671.845947 1210.060547,1671.845947 
z"/>
<path fill="#FBFDFD" opacity="1.000000" stroke="none" 
	d="
M763.809570,1648.663208 
	C776.722534,1620.350708 789.659607,1592.463257 802.106018,1564.358276 
	C804.394592,1559.190552 807.934387,1560.308838 811.712646,1559.994995 
	C815.453125,1559.683960 817.525452,1560.705933 819.232300,1564.490723 
	C836.174011,1602.055054 853.384094,1639.498413 870.512939,1676.978394 
	C871.328979,1678.764038 872.094177,1680.572998 872.866089,1682.332275 
	C872.394348,1682.632202 872.156128,1682.913452 871.907715,1682.922852 
	C859.773804,1683.380615 859.777893,1683.376221 854.729431,1672.163696 
	C851.932373,1665.951538 848.945374,1659.816895 846.389893,1653.507324 
	C845.241394,1650.671631 843.587524,1650.039795 840.766479,1650.054810 
	C820.613708,1650.161743 800.459839,1650.171265 780.307312,1650.045654 
	C777.401489,1650.027588 775.921875,1650.885254 774.765076,1653.611694 
	C771.131836,1662.174805 766.990356,1670.524536 763.449890,1679.123169 
	C762.138489,1682.308228 760.462524,1683.400024 757.178772,1683.065796 
	C754.406860,1682.783447 751.583374,1683.007690 748.092773,1683.007690 
	C753.451294,1671.309692 758.558044,1660.161499 763.809570,1648.663208 
M795.285095,1607.798096 
	C790.686646,1618.190918 786.088196,1628.583618 781.260498,1639.494385 
	C801.213379,1639.494385 820.251099,1639.494385 840.013428,1639.494385 
	C830.174255,1617.477417 820.531006,1595.899048 810.585388,1573.644043 
	C805.385864,1585.314453 800.523865,1596.227295 795.285095,1607.798096 
z"/>
<path fill="#FBFDFD" opacity="1.000000" stroke="none" 
	d="
M503.828979,1619.068115 
	C513.555481,1640.403809 523.136475,1661.390625 533.005066,1683.007568 
	C529.120667,1683.007568 525.841797,1682.828613 522.592834,1683.063965 
	C519.979553,1683.253174 518.846069,1682.165649 517.854370,1679.861450 
	C514.044617,1671.008911 509.904724,1662.298340 506.105896,1653.441406 
	C505.029480,1650.931641 503.718201,1650.025757 500.937042,1650.043091 
	C480.447754,1650.171143 459.957062,1650.157959 439.467468,1650.055786 
	C436.895813,1650.042969 435.698792,1650.914185 434.698761,1653.254639 
	C431.107941,1661.659058 427.065948,1669.874023 423.594757,1678.324829 
	C422.120575,1681.913696 420.329346,1683.675659 416.292877,1683.078247 
	C413.737793,1682.699951 411.081146,1683.007690 407.836304,1683.007690 
	C414.303711,1668.880615 420.522858,1655.319458 426.722107,1641.749268 
	C438.531067,1615.899414 450.443756,1590.095703 462.009918,1564.137451 
	C463.791931,1560.137939 466.311646,1559.855957 469.765747,1560.025635 
	C473.411469,1560.204468 476.805054,1559.209717 478.969727,1564.239624 
	C486.851105,1582.552979 495.391541,1600.582764 503.828979,1619.068115 
M486.480865,1639.723022 
	C490.676422,1639.723022 494.871979,1639.723022 499.871674,1639.723022 
	C489.831970,1617.257935 480.268372,1595.858154 470.341217,1573.644897 
	C460.351379,1596.021362 450.719757,1617.595337 440.840942,1639.723022 
	C456.280945,1639.723022 470.883606,1639.723022 486.480865,1639.723022 
z"/>
<path fill="#FAFCFC" opacity="1.000000" stroke="none" 
	d="
M631.408813,1676.745728 
	C614.166077,1637.839233 597.112427,1599.268799 579.881165,1560.296631 
	C584.801880,1560.296631 589.204895,1560.296631 593.909790,1560.296631 
	C609.339050,1595.295044 624.818909,1630.408325 640.843750,1666.757690 
	C656.919373,1630.611694 672.585815,1595.385864 688.252869,1560.158569 
	C692.475769,1560.158569 696.459106,1560.158569 701.062500,1560.158569 
	C700.520752,1561.709473 700.157349,1563.040405 699.605469,1564.288086 
	C682.668640,1602.583740 665.686584,1640.859375 648.816162,1679.184082 
	C647.587341,1681.975708 646.199158,1683.438477 642.957031,1683.075317 
	C640.165039,1682.762573 637.310242,1683.010376 634.270447,1683.010376 
	C633.358887,1680.988281 632.478394,1679.035034 631.408813,1676.745728 
z"/>
<path fill="#FBFDFD" opacity="1.000000" stroke="none" 
	d="
M939.838196,1573.031494 
	C939.838196,1568.551514 939.838196,1564.565063 939.838196,1560.317139 
	C944.204224,1560.317139 948.259277,1560.317139 952.787537,1560.317139 
	C952.787537,1597.471802 952.787537,1634.395996 952.787537,1671.764526 
	C975.836609,1671.764526 998.420105,1671.764526 1021.313171,1671.764526 
	C1021.313171,1675.599243 1021.313171,1678.994385 1021.313171,1682.701904 
	C994.303772,1682.701904 967.387573,1682.701904 939.838196,1682.701904 
	C939.838196,1646.357300 939.838196,1609.941040 939.838196,1573.031494 
z"/>
<path fill="#FEFEFE" opacity="1.000000" stroke="none" 
	d="
M1088.999878,1640.000000 
	C1088.999878,1613.209106 1088.999878,1586.918213 1088.999878,1560.343018 
	C1093.414062,1560.343018 1097.468018,1560.343018 1101.763916,1560.343018 
	C1101.763916,1601.103394 1101.763916,1641.694824 1101.763916,1682.644531 
	C1097.774170,1682.644531 1093.714844,1682.644531 1088.999878,1682.644531 
	C1088.999878,1668.680298 1088.999878,1654.590210 1088.999878,1640.000000 
z"/>
<path fill="#F0F5F6" opacity="1.000000" stroke="none" 
	d="
M816.113892,1784.771484 
	C827.460205,1791.139282 831.824829,1802.854614 827.593140,1814.807373 
	C823.909302,1825.212402 813.764954,1831.174805 802.016052,1828.889038 
	C797.539062,1828.017822 793.456360,1825.119995 788.885376,1823.002930 
	C788.885376,1830.041870 788.885376,1837.860962 788.885376,1845.830688 
	C786.396179,1845.830688 784.613953,1845.830688 782.559937,1845.830688 
	C782.559937,1824.903442 782.559937,1804.162964 782.559937,1783.197510 
	C784.371887,1783.197510 785.987732,1783.197510 787.996216,1783.197510 
	C788.192200,1785.374023 788.393066,1787.604492 788.667908,1790.657104 
	C796.686218,1782.439575 805.701477,1780.801025 816.113892,1784.771484 
M789.868408,1813.154541 
	C794.360596,1822.641113 803.751648,1826.401123 812.893677,1822.373413 
	C821.121826,1818.748291 825.000671,1808.320435 821.574036,1799.037476 
	C818.388855,1790.408691 808.968201,1786.049316 799.967468,1789.038940 
	C790.958435,1792.031494 787.039246,1800.835938 789.868408,1813.154541 
z"/>
<path fill="#FAFCFC" opacity="1.000000" stroke="none" 
	d="
M281.639709,1785.250610 
	C292.268524,1792.034912 296.166504,1803.530029 291.979492,1814.933594 
	C288.245056,1825.104370 278.335144,1831.036499 266.802795,1828.873657 
	C262.049164,1827.982056 257.713898,1824.859863 253.120728,1822.720581 
	C253.046921,1823.844727 252.894287,1826.169434 252.725220,1828.744629 
	C250.848526,1828.744629 249.117722,1828.744629 247.184509,1828.744629 
	C247.184509,1807.231812 247.184509,1785.861328 247.184509,1764.276611 
	C249.040543,1764.276611 250.654755,1764.276611 252.903259,1764.276611 
	C252.903259,1772.826172 252.903259,1781.493896 252.903259,1791.306641 
	C261.602386,1781.921021 270.965637,1780.815552 281.639709,1785.250610 
M253.330612,1809.782715 
	C256.155884,1819.810425 262.941101,1824.896484 272.111847,1823.861084 
	C280.773590,1822.883179 286.747009,1816.324707 287.132050,1807.369507 
	C287.568512,1797.218262 282.402130,1790.094238 273.329742,1788.337402 
	C261.314606,1786.010620 252.551926,1794.977661 253.330612,1809.782715 
z"/>
<path fill="#F5F8F9" opacity="1.000000" stroke="none" 
	d="
M504.045929,1813.529663 
	C510.897552,1825.505615 523.187805,1827.318237 534.950378,1818.194824 
	C536.004517,1819.343506 537.078430,1820.513672 538.091248,1821.617310 
	C532.719727,1830.440186 515.982727,1831.295654 507.500183,1826.091064 
	C497.760925,1820.115479 493.733368,1807.467407 498.313263,1796.277100 
	C502.499298,1786.048950 513.500793,1780.595703 524.586304,1783.253784 
	C535.268921,1785.815186 541.861267,1795.572754 540.833069,1807.844604 
	C528.335266,1807.844604 515.782166,1807.844604 502.656555,1807.844604 
	C503.174744,1810.005615 503.551819,1811.578003 504.045929,1813.529663 
M504.739471,1796.532104 
	C504.071655,1798.521851 503.403839,1800.511597 502.596863,1802.915894 
	C513.753540,1802.915894 524.278625,1802.915894 534.821594,1802.915894 
	C534.335449,1795.575439 530.275574,1790.507446 523.571045,1788.620605 
	C516.356628,1786.590454 510.122345,1789.023682 504.739471,1796.532104 
z"/>
<path fill="#F0F5F6" opacity="1.000000" stroke="none" 
	d="
M326.145142,1788.761230 
	C322.552460,1790.125977 319.356262,1791.394897 315.743195,1792.829346 
	C315.093140,1791.735840 314.292542,1790.389282 313.296295,1788.713501 
	C322.440308,1782.409424 331.874817,1780.839844 341.898895,1784.652832 
	C346.970673,1786.582031 349.979523,1790.865112 350.143890,1796.220825 
	C350.474518,1806.993164 350.242249,1817.782593 350.242249,1828.797363 
	C348.681671,1828.797363 347.067108,1828.797363 345.104370,1828.797363 
	C344.884216,1827.323486 344.651398,1825.765015 344.256409,1823.120728 
	C338.781830,1828.791748 332.359955,1829.935669 325.419342,1829.169922 
	C317.384827,1828.283203 312.144836,1823.278931 312.017273,1816.307495 
	C311.889282,1809.312744 316.249786,1804.328979 324.565765,1803.447144 
	C330.954803,1802.769531 337.473267,1803.312012 343.856964,1803.312012 
	C344.926361,1791.293823 338.991669,1786.561157 326.145142,1788.761230 
M342.353546,1807.819214 
	C336.868652,1807.894775 331.368317,1807.745239 325.904053,1808.121094 
	C321.953217,1808.392700 318.872467,1810.453979 318.304108,1814.744141 
	C317.755249,1818.887085 319.659027,1821.993164 323.553986,1823.347656 
	C329.159912,1825.297363 334.716400,1825.020874 339.691528,1821.400391 
	C344.306824,1818.041504 345.399414,1813.688599 342.353546,1807.819214 
z"/>
<path fill="#F5F8F9" opacity="1.000000" stroke="none" 
	d="
M1127.083008,1826.197021 
	C1110.026001,1834.322998 1092.801514,1826.259277 1090.503174,1809.144165 
	C1089.292725,1800.129639 1091.966431,1792.172852 1099.661133,1786.779175 
	C1107.279053,1781.439209 1115.639893,1781.108521 1123.734863,1785.501587 
	C1132.229736,1790.111450 1135.227051,1797.952637 1134.983398,1807.982422 
	C1128.597656,1807.982422 1122.328979,1807.982422 1116.060181,1807.982422 
	C1109.745117,1807.982422 1103.430054,1807.982422 1096.755859,1807.982422 
	C1097.055542,1814.587280 1100.054443,1819.163208 1105.508789,1821.778931 
	C1113.839722,1825.774048 1121.627441,1824.377930 1128.744751,1818.078613 
	C1129.850830,1819.372070 1130.891479,1820.588867 1132.198853,1822.117676 
	C1130.437378,1823.548462 1128.919434,1824.781372 1127.083008,1826.197021 
M1127.134399,1796.614014 
	C1122.443481,1789.289062 1115.691162,1786.463379 1108.116699,1788.655884 
	C1101.355713,1790.612793 1097.232178,1795.924194 1097.171143,1802.861816 
	C1107.691040,1802.861816 1118.207275,1802.861816 1129.216187,1802.861816 
	C1128.560059,1800.713867 1128.035400,1798.996094 1127.134399,1796.614014 
z"/>
<path fill="#F5F8F9" opacity="1.000000" stroke="none" 
	d="
M1266.447876,1826.582764 
	C1260.611328,1827.532227 1255.012207,1829.255981 1249.584961,1828.823120 
	C1238.445068,1827.934570 1230.456909,1818.097412 1230.186401,1806.420532 
	C1229.924316,1795.100708 1237.188843,1785.357056 1247.528076,1783.160645 
	C1258.709595,1780.785278 1269.292603,1786.064941 1273.146362,1796.349487 
	C1274.441284,1799.805298 1274.730591,1803.637817 1275.591309,1807.844238 
	C1262.231201,1807.844238 1249.795410,1807.844238 1237.402710,1807.844238 
	C1236.813232,1813.750122 1239.777100,1818.836548 1245.237305,1821.742188 
	C1252.594971,1825.657349 1261.010254,1824.414917 1268.618408,1818.119385 
	C1269.705688,1819.259033 1270.809448,1820.415894 1272.349487,1822.030151 
	C1270.328857,1823.603882 1268.545898,1824.992432 1266.447876,1826.582764 
M1246.534790,1803.190186 
	C1253.940430,1803.190186 1261.345947,1803.190186 1268.842163,1803.190186 
	C1267.236816,1792.980225 1260.801025,1787.537354 1251.649414,1788.031128 
	C1243.420776,1788.474854 1237.327515,1794.648193 1237.124756,1803.190186 
	C1239.928101,1803.190186 1242.737793,1803.190186 1246.534790,1803.190186 
z"/>
<path fill="#F5F8F9" opacity="1.000000" stroke="none" 
	d="
M852.722839,1826.344238 
	C847.960327,1822.750977 846.424744,1818.307251 847.730835,1812.908325 
	C849.074829,1807.353027 852.985535,1804.346436 858.348389,1803.778809 
	C865.266785,1803.046509 872.255493,1802.979248 879.434204,1802.614502 
	C879.904968,1797.783691 879.532410,1792.956787 874.939697,1790.340210 
	C866.691895,1785.641602 858.918945,1788.577637 851.221191,1793.173828 
	C850.360901,1791.734497 849.546875,1790.372437 848.582214,1788.758545 
	C857.324768,1782.490845 866.551514,1781.074951 876.278320,1784.244873 
	C882.259277,1786.193848 885.412109,1791.207153 885.650513,1797.244995 
	C886.062744,1807.683960 885.764832,1818.150757 885.764832,1828.800659 
	C883.726746,1828.800659 881.970642,1828.800659 880.071777,1828.800659 
	C879.989197,1826.952148 879.916016,1825.314941 879.818298,1823.128174 
	C871.496643,1830.446167 862.556396,1831.274536 852.722839,1826.344238 
M859.386047,1823.716919 
	C861.520081,1823.965088 863.656189,1824.441040 865.787842,1824.421997 
	C874.884094,1824.341064 882.286072,1816.857788 878.994812,1807.974609 
	C873.307800,1807.974609 867.524170,1807.778809 861.761658,1808.043335 
	C857.914978,1808.220215 854.591919,1809.765991 853.754150,1814.122559 
	C852.922546,1818.446533 854.593262,1821.545532 859.386047,1823.716919 
z"/>
<path fill="#FAFCFC" opacity="1.000000" stroke="none" 
	d="
M412.990204,1782.992188 
	C414.617737,1783.048950 415.862671,1783.106079 416.865112,1783.151978 
	C411.014648,1789.569580 405.239868,1795.904053 399.206512,1802.522217 
	C405.727844,1810.799438 412.586517,1819.504761 419.699066,1828.532349 
	C415.001434,1829.682617 411.918762,1828.908936 409.156952,1825.045654 
	C404.532776,1818.577393 399.256226,1812.575562 393.906799,1805.946777 
	C390.392609,1809.212158 386.053619,1811.682373 384.215576,1815.391968 
	C382.386749,1819.082886 383.069977,1824.018433 382.622528,1828.713623 
	C381.031219,1828.713623 379.290009,1828.713623 377.241333,1828.713623 
	C377.241333,1807.378052 377.241333,1785.988281 377.241333,1764.329590 
	C379.066345,1764.329590 380.796265,1764.329590 382.963013,1764.329590 
	C382.963013,1778.498779 382.963013,1792.570679 382.963013,1807.964600 
	C385.232697,1806.007080 386.664764,1804.828369 388.034332,1803.581177 
	C394.682587,1797.525879 401.267914,1791.400513 407.992981,1785.432251 
	C409.257233,1784.310303 411.055664,1783.790283 412.990204,1782.992188 
z"/>
<path fill="#FAFCFC" opacity="1.000000" stroke="none" 
	d="
M455.025665,1799.040405 
	C459.839630,1794.646973 464.586884,1790.680298 468.864807,1786.259521 
	C471.872314,1783.151367 475.082825,1782.320068 478.662018,1783.216797 
	C473.021881,1789.451416 467.273376,1795.805786 461.209595,1802.508789 
	C467.661346,1810.707031 474.520935,1819.423584 481.573334,1828.385132 
	C477.052979,1829.775757 474.019836,1829.017212 471.247864,1825.150269 
	C466.609528,1818.679932 461.335236,1812.665405 456.257965,1806.371582 
	C447.842072,1811.520752 442.363403,1817.854126 445.664001,1828.743408 
	C443.131409,1828.870239 441.384735,1828.957642 439.282227,1829.062988 
	C439.282227,1807.472656 439.282227,1786.078979 439.282227,1764.372803 
	C440.990143,1764.372803 442.720642,1764.372803 444.883118,1764.372803 
	C444.883118,1778.421387 444.883118,1792.503052 444.883118,1808.063965 
	C448.809814,1804.568481 451.784180,1801.920776 455.025665,1799.040405 
z"/>
<path fill="#F6F9FA" opacity="1.000000" stroke="none" 
	d="
M1003.023132,1803.220581 
	C1006.814026,1804.129883 1010.236694,1804.832031 1013.577759,1805.812256 
	C1018.332764,1807.207031 1021.342468,1810.326294 1021.688354,1815.412354 
	C1022.040100,1820.583862 1019.636536,1824.355835 1015.140137,1826.820190 
	C1006.935486,1831.316895 992.103210,1829.812012 984.201294,1823.531738 
	C984.953735,1822.188477 985.731201,1820.800659 985.982788,1820.351562 
	C992.603149,1821.625977 998.639771,1822.955688 1004.739380,1823.861694 
	C1006.600586,1824.138062 1009.089355,1823.834351 1010.481750,1822.753906 
	C1012.493835,1821.192749 1014.852295,1818.762451 1015.017212,1816.550415 
	C1015.150452,1814.763916 1012.621582,1811.754639 1010.639465,1811.035034 
	C1005.527344,1809.178955 1000.009216,1808.480957 994.754272,1806.969238 
	C987.922913,1805.003906 985.061951,1800.591187 985.892578,1793.959717 
	C986.527527,1788.890381 989.821228,1785.827637 994.264221,1784.331787 
	C1003.010498,1781.387573 1011.537903,1782.342651 1020.119751,1786.822388 
	C1019.204468,1788.536377 1018.459045,1789.932495 1017.979370,1790.830811 
	C1012.807129,1789.850586 1008.031616,1788.685669 1003.186401,1788.144409 
	C1000.987854,1787.898926 998.232849,1788.281738 996.488770,1789.481934 
	C994.540100,1790.822876 992.329529,1793.403564 992.309937,1795.464478 
	C992.290894,1797.461060 994.577881,1799.918945 996.471985,1801.358765 
	C998.056030,1802.562988 1000.535461,1802.589600 1003.023132,1803.220581 
z"/>
<path fill="#F5F8F9" opacity="1.000000" stroke="none" 
	d="
M1064.093994,1822.308960 
	C1069.582520,1817.067749 1068.621338,1812.412476 1061.777100,1810.388306 
	C1057.169067,1809.025513 1052.347778,1808.397217 1047.703491,1807.139282 
	C1041.024292,1805.330078 1038.101807,1801.875122 1037.976440,1796.200073 
	C1037.850342,1790.496948 1041.106201,1786.190552 1047.185913,1784.018677 
	C1054.270630,1781.488037 1064.465210,1782.614502 1072.213135,1787.008545 
	C1071.427368,1788.504150 1070.630981,1790.020020 1070.209595,1790.822021 
	C1064.838745,1789.823486 1060.053833,1788.740723 1055.209351,1788.130127 
	C1053.325806,1787.892700 1050.834351,1788.119751 1049.460571,1789.202148 
	C1047.317017,1790.891235 1044.680542,1793.412720 1044.534180,1795.725708 
	C1044.413208,1797.640625 1047.209595,1800.787964 1049.379395,1801.591309 
	C1054.635376,1803.537231 1060.355713,1804.183960 1065.747559,1805.820312 
	C1071.907837,1807.689941 1075.182739,1812.196167 1073.704590,1817.759155 
	C1072.853394,1820.962280 1070.508545,1824.498901 1067.789307,1826.337036 
	C1059.931885,1831.648926 1044.492676,1829.997559 1036.569214,1823.558228 
	C1037.273315,1822.209229 1038.008179,1820.801147 1038.896851,1819.098145 
	C1046.873657,1823.532471 1054.978760,1825.728760 1064.093994,1822.308960 
z"/>
<path fill="#F9FBFB" opacity="1.000000" stroke="none" 
	d="
M924.655945,1823.754883 
	C928.102234,1823.517944 931.152588,1823.167480 934.595398,1822.771851 
	C934.945618,1823.461426 935.529236,1824.610352 936.128662,1825.790527 
	C935.731018,1826.302979 935.519348,1826.809570 935.141174,1827.029419 
	C923.872192,1833.576782 913.252563,1827.607788 913.127563,1814.612915 
	C913.044434,1805.976807 913.111755,1797.339478 913.111755,1788.414795 
	C910.323669,1788.267456 907.871521,1788.137939 905.182556,1787.995850 
	C905.108459,1786.468628 905.037415,1785.005127 904.946899,1783.141235 
	C907.574341,1783.141235 910.008728,1783.141235 912.949219,1783.141235 
	C912.949219,1779.707520 912.949219,1776.638184 912.949219,1773.212524 
	C915.180664,1773.110229 916.925415,1773.030151 919.104675,1772.930298 
	C919.262817,1776.274170 919.408325,1779.351685 919.576111,1782.898438 
	C924.063843,1782.898438 928.472717,1782.898438 933.109741,1782.898438 
	C933.109741,1784.804321 933.109741,1786.238525 933.109741,1788.068848 
	C928.775574,1788.068848 924.494263,1788.068848 919.866211,1788.068848 
	C919.866211,1798.520630 919.661011,1808.592651 920.063599,1818.640381 
	C920.132568,1820.360718 922.795410,1821.977051 924.655945,1823.754883 
z"/>
<path fill="#EBF2F3" opacity="1.000000" stroke="none" 
	d="
M640.119385,1845.298096 
	C634.613464,1846.925781 629.655945,1846.727417 624.523682,1843.753174 
	C625.149475,1842.103760 625.698853,1840.655640 626.317139,1839.025879 
	C627.690002,1839.550903 628.730469,1840.009277 629.807983,1840.350830 
	C636.669373,1842.524902 641.069214,1839.574341 641.137268,1832.411011 
	C641.274841,1817.924438 641.189880,1803.435669 641.196472,1788.947876 
	C641.197266,1787.145996 641.196655,1785.344116 641.196655,1783.254150 
	C643.365540,1783.254150 645.116638,1783.254150 647.206543,1783.254150 
	C647.350220,1784.264893 647.637634,1785.353394 647.639771,1786.442261 
	C647.668640,1801.263184 647.700684,1816.084473 647.636169,1830.905029 
	C647.610596,1836.782471 646.562744,1842.261841 640.119385,1845.298096 
z"/>
<path fill="#EBF2F3" opacity="1.000000" stroke="none" 
	d="
M580.967651,1783.115967 
	C582.975647,1783.051392 584.604675,1783.051392 586.469238,1783.051392 
	C586.469238,1784.845703 586.469238,1786.434937 586.469238,1788.292725 
	C585.461975,1788.479126 584.532715,1788.717651 583.588867,1788.815552 
	C575.160095,1789.689575 570.427734,1794.503784 569.913147,1803.089111 
	C569.654785,1807.400269 569.775818,1811.735229 569.753906,1816.059570 
	C569.733032,1820.191650 569.749390,1824.323975 569.749390,1828.743408 
	C567.584656,1828.743408 565.831482,1828.743408 563.672302,1828.743408 
	C563.672302,1813.776001 563.672302,1798.752808 563.672302,1783.226929 
	C565.264771,1783.133789 566.985413,1783.033203 568.955383,1782.918091 
	C569.243164,1785.218750 569.496582,1787.244629 569.707947,1788.934082 
	C573.448425,1786.956177 577.018616,1785.068359 580.967651,1783.115967 
z"/>
<path fill="#F7FAFA" opacity="1.000000" stroke="none" 
	d="
M1163.911621,1800.625244 
	C1163.846802,1810.196045 1163.846802,1819.330200 1163.846802,1828.738037 
	C1161.251953,1828.738037 1159.494385,1828.738037 1157.397217,1828.738037 
	C1157.397217,1813.756226 1157.397217,1798.695190 1157.397217,1783.309692 
	C1159.107178,1783.309692 1160.830322,1783.309692 1162.924561,1783.309692 
	C1162.924561,1785.397217 1162.924561,1787.484863 1162.924561,1790.828369 
	C1168.010132,1785.365356 1173.113281,1782.151489 1180.059570,1783.034546 
	C1180.059570,1784.793457 1180.059570,1786.402344 1180.059570,1788.471924 
	C1171.976440,1788.616577 1165.893066,1791.672852 1163.911621,1800.625244 
z"/>
<path fill="#F9FBFB" opacity="1.000000" stroke="none" 
	d="
M963.300903,1808.000244 
	C963.300903,1815.154053 963.300903,1821.807739 963.300903,1828.734741 
	C961.243896,1828.734741 959.481323,1828.734741 957.395752,1828.734741 
	C957.395752,1813.736328 957.395752,1798.662109 957.395752,1783.288208 
	C959.155273,1783.288208 960.901123,1783.288208 963.300964,1783.288208 
	C963.300964,1791.321167 963.300964,1799.410767 963.300903,1808.000244 
z"/>
<path fill="#FAFCFC" opacity="1.000000" stroke="none" 
	d="
M1201.722046,1820.866211 
	C1201.722046,1808.121460 1201.722046,1795.857422 1201.722046,1783.294067 
	C1203.735352,1783.294067 1205.478394,1783.294067 1207.579102,1783.294067 
	C1207.579102,1798.314453 1207.579102,1813.454956 1207.579102,1828.803467 
	C1205.718994,1828.803467 1203.954834,1828.803467 1201.722046,1828.803467 
	C1201.722046,1826.242920 1201.722046,1823.794922 1201.722046,1820.866211 
z"/>
<path fill="#FEFEFE" opacity="1.000000" stroke="none" 
	d="
M614.062256,1805.000000 
	C614.062256,1813.130859 614.062256,1820.761719 614.062256,1828.771851 
	C612.055054,1828.862671 610.318542,1828.941284 608.255615,1829.034668 
	C608.255615,1813.726318 608.255615,1798.671875 608.255615,1783.216675 
	C609.953979,1783.139771 611.691467,1783.061157 614.062256,1782.953735 
	C614.062256,1790.308716 614.062256,1797.404297 614.062256,1805.000000 
z"/>
<path fill="#FAFCFC" opacity="1.000000" stroke="none" 
	d="
M705.006470,1802.730957 
	C712.170349,1802.665527 718.924011,1802.665527 725.996277,1802.665527 
	C726.152588,1804.501587 726.272949,1805.915039 726.423462,1807.682739 
	C718.770325,1807.682739 711.419128,1807.682739 703.215210,1807.682739 
	C703.718445,1805.901978 704.157288,1804.349121 705.006470,1802.730957 
z"/>
<path fill="#F0F5F6" opacity="1.000000" stroke="none" 
	d="
M1207.611084,1765.099121 
	C1207.958130,1767.387817 1208.548584,1769.694458 1207.823975,1771.462036 
	C1207.459229,1772.351929 1204.100098,1773.095825 1203.176147,1772.422241 
	C1201.776611,1771.401978 1200.302490,1768.830078 1200.670776,1767.376099 
	C1201.488892,1764.146729 1204.133057,1763.180298 1207.611084,1765.099121 
z"/>
<path fill="#F5F8F9" opacity="1.000000" stroke="none" 
	d="
M614.325562,1771.503418 
	C611.463867,1773.727905 608.757507,1773.515381 607.396606,1770.721924 
	C606.716675,1769.326172 607.355042,1766.187378 608.515076,1765.302246 
	C609.698242,1764.399658 612.952698,1764.575928 614.007446,1765.604980 
	C615.044556,1766.616699 614.458252,1769.292236 614.325562,1771.503418 
z"/>
<path fill="#F0F5F6" opacity="1.000000" stroke="none" 
	d="
M956.672913,1765.936279 
	C959.820007,1763.166626 962.808533,1763.385132 964.161926,1766.782593 
	C964.734009,1768.218750 963.203186,1771.641113 961.678162,1772.528687 
	C958.333618,1774.475464 955.630249,1771.090088 956.672913,1765.936279 
z"/>
<path fill="#EBF2F3" opacity="1.000000" stroke="none" 
	d="
M644.886169,1764.029541 
	C646.510071,1765.751953 648.193420,1767.313354 648.755432,1769.207520 
	C648.992554,1770.006714 647.015442,1772.245850 645.775024,1772.496948 
	C644.309937,1772.793335 642.092529,1772.108398 641.015259,1771.033203 
	C638.517273,1768.540527 640.066589,1765.646484 644.886169,1764.029541 
z"/>
<path fill="#196777" opacity="1.000000" stroke="none" 
	d="
M637.643188,485.374146 
	C563.069275,426.768707 554.804565,316.669861 619.557739,247.839127 
	C672.298035,191.777725 755.912781,180.198715 821.428589,220.642731 
	C865.812744,248.041855 891.909241,288.298157 897.580261,340.054260 
	C907.904297,434.274139 839.979004,507.714630 759.500061,518.086243 
	C714.665405,523.864258 673.955688,513.230652 637.643188,485.374146 
M881.992493,335.620697 
	C881.118835,331.387299 880.389099,327.118256 879.350159,322.925842 
	C860.420837,246.535599 784.207397,199.247147 706.383789,215.570496 
	C630.440125,231.499512 580.322510,306.453918 593.779236,383.777130 
	C606.985962,459.664215 679.839050,518.030945 766.136169,501.549042 
	C842.855957,486.896271 893.252686,414.214020 881.992493,335.620697 
z"/>
<path fill="#176676" opacity="1.000000" stroke="none" 
	d="
M951.028564,340.044098 
	C951.028564,355.506195 951.028564,370.476105 951.028564,385.794006 
	C935.049438,385.794006 919.335022,385.794006 904.252319,385.794006 
	C904.252319,367.305450 904.252319,348.921326 904.252319,330.441467 
	C919.359436,330.441467 934.951721,330.441467 951.028564,330.441467 
	C951.028564,333.643738 951.028564,336.597809 951.028564,340.044098 
z"/>
<path fill="#166575" opacity="1.000000" stroke="none" 
	d="
M367.007019,519.213623 
	C308.962341,525.031372 260.523590,506.972687 222.559784,462.945312 
	C200.380829,437.223969 187.994659,406.921173 185.371338,373.105316 
	C181.949738,328.999298 193.994919,289.336609 222.551315,255.273041 
	C247.908386,225.025803 280.329285,205.974792 319.235596,199.824890 
	C367.177856,192.246704 410.908936,203.294754 448.736664,234.433777 
	C482.451111,262.186798 502.154480,298.115875 506.626953,341.426239 
	C515.927063,431.485260 454.886627,501.083923 380.732330,516.885742 
	C376.343628,517.820984 371.881287,518.410828 367.007019,519.213623 
M332.506012,377.068451 
	C340.677643,382.882904 349.473907,383.020905 357.859863,378.386200 
	C367.166046,373.242950 369.889771,364.258118 367.941986,354.337006 
	C365.756653,343.205933 357.788818,337.848511 347.017120,336.538025 
	C344.705658,314.748077 327.466156,297.459076 314.718384,295.866394 
	C331.667450,304.440826 342.595520,317.378204 345.076782,336.650604 
	C334.813141,337.890717 327.595276,342.933105 324.785919,352.770294 
	C322.148651,362.004791 324.419769,370.207764 332.506012,377.068451 
z"/>
<path fill="#176575" opacity="1.000000" stroke="none" 
	d="
M1273.140503,247.876099 
	C1301.595215,278.820160 1317.081421,314.797089 1316.890259,356.673035 
	C1316.590088,422.423187 1286.674561,471.057159 1229.209595,502.205017 
	C1173.338501,532.488892 1097.777710,522.521545 1050.439941,480.124268 
	C1020.055664,452.911133 1001.438110,419.410492 996.414795,378.924225 
	C988.324097,313.714539 1019.425720,253.591583 1071.993408,221.309708 
	C1105.783203,200.559326 1142.571045,193.714325 1181.326538,199.499496 
	C1217.129761,204.843964 1247.769043,221.307556 1273.140503,247.876099 
M1115.007568,375.589142 
	C1116.597656,364.750122 1116.057251,354.017578 1113.493408,343.367401 
	C1107.787354,319.665466 1093.802002,301.131042 1076.800659,284.474945 
	C1074.880737,282.594116 1072.893677,280.280151 1070.128662,283.182190 
	C1067.503540,285.937347 1070.085083,287.583649 1071.685913,289.414734 
	C1078.032837,296.674683 1084.973022,303.510376 1090.581665,311.303436 
	C1107.231689,334.437805 1113.031250,359.857849 1105.081177,387.816284 
	C1100.886108,402.569122 1093.618286,415.731110 1084.894043,428.192963 
	C1083.350342,430.398163 1081.341309,432.728668 1084.758057,434.918243 
	C1087.985840,436.986633 1089.163696,434.059540 1090.534912,432.124756 
	C1102.491821,415.254486 1111.665161,397.154724 1115.007568,375.589142 
M1181.354248,343.106506 
	C1175.615356,318.832855 1161.127930,300.047150 1143.531372,283.301147 
	C1142.490356,282.310486 1139.868774,282.980469 1137.982910,282.877686 
	C1138.284180,284.734894 1137.955200,287.113190 1138.989502,288.364319 
	C1145.445557,296.173462 1152.835693,303.275818 1158.746338,311.457642 
	C1175.592407,334.776489 1180.938354,360.496613 1172.749390,388.480591 
	C1168.502563,402.993500 1161.278809,416.036682 1152.527466,428.284973 
	C1151.003662,430.417847 1149.442383,433.037262 1152.729370,434.449005 
	C1154.007935,434.998077 1157.094238,433.557556 1158.098511,432.134888 
	C1162.115967,426.444458 1165.932617,420.566650 1169.292480,414.465698 
	C1181.452271,392.384766 1187.171875,369.100189 1181.354248,343.106506 
M1251.045776,375.598389 
	C1252.511108,362.150024 1250.955078,349.065491 1246.417969,336.316376 
	C1239.498047,316.871613 1227.144287,301.173859 1212.541138,287.017853 
	C1210.635620,285.170624 1208.656616,282.663208 1205.922607,285.623840 
	C1203.219849,288.550537 1206.025024,290.305817 1207.738403,292.261841 
	C1213.979492,299.386993 1220.751587,306.133179 1226.289917,313.771606 
	C1243.644287,337.706360 1248.949219,363.989532 1240.140137,392.646576 
	C1235.792480,406.789917 1228.631958,419.466675 1220.097534,431.438538 
	C1218.584595,433.560791 1217.676636,436.032806 1220.563965,437.239838 
	C1221.838013,437.772430 1224.772827,436.670013 1225.675659,435.400848 
	C1238.335815,417.603180 1248.130737,398.517822 1251.045776,375.598389 
z"/>
<path fill="#176676" opacity="1.000000" stroke="none" 
	d="
M310.001465,1667.224731 
	C303.842896,1668.728394 298.080811,1671.021362 292.233765,1671.263916 
	C278.304382,1671.841309 264.334839,1671.449951 249.951111,1671.449951 
	C249.951111,1638.324341 249.951111,1605.162231 249.951111,1571.293213 
	C253.777939,1571.293213 257.543884,1571.182983 261.301483,1571.313354 
	C274.085785,1571.757202 287.070404,1571.030518 299.604584,1573.060181 
	C321.442566,1576.596191 336.581085,1593.005371 338.965118,1613.214722 
	C341.933197,1638.374756 332.030884,1657.021606 310.001465,1667.224731 
z"/>
<path fill="#1A6878" opacity="1.000000" stroke="none" 
	d="
M795.473450,1607.469116 
	C800.523865,1596.227295 805.385864,1585.314453 810.585388,1573.644043 
	C820.531006,1595.899048 830.174255,1617.477417 840.013428,1639.494385 
	C820.251099,1639.494385 801.213379,1639.494385 781.260498,1639.494385 
	C786.088196,1628.583618 790.686646,1618.190918 795.473450,1607.469116 
z"/>
<path fill="#1A6878" opacity="1.000000" stroke="none" 
	d="
M485.983582,1639.723022 
	C470.883606,1639.723022 456.280945,1639.723022 440.840942,1639.723022 
	C450.719757,1617.595337 460.351379,1596.021362 470.341217,1573.644897 
	C480.268372,1595.858154 489.831970,1617.257935 499.871674,1639.723022 
	C494.871979,1639.723022 490.676422,1639.723022 485.983582,1639.723022 
z"/>
<path fill="#196777" opacity="1.000000" stroke="none" 
	d="
M789.721619,1812.770020 
	C787.039246,1800.835938 790.958435,1792.031494 799.967468,1789.038940 
	C808.968201,1786.049316 818.388855,1790.408691 821.574036,1799.037476 
	C825.000671,1808.320435 821.121826,1818.748291 812.893677,1822.373413 
	C803.751648,1826.401123 794.360596,1822.641113 789.721619,1812.770020 
z"/>
<path fill="#196777" opacity="1.000000" stroke="none" 
	d="
M253.256134,1809.369141 
	C252.551926,1794.977661 261.314606,1786.010620 273.329742,1788.337402 
	C282.402130,1790.094238 287.568512,1797.218262 287.132050,1807.369507 
	C286.747009,1816.324707 280.773590,1822.883179 272.111847,1823.861084 
	C262.941101,1824.896484 256.155884,1819.810425 253.256134,1809.369141 
z"/>
<path fill="#196777" opacity="1.000000" stroke="none" 
	d="
M504.906311,1796.186279 
	C510.122345,1789.023682 516.356628,1786.590454 523.571045,1788.620605 
	C530.275574,1790.507446 534.335449,1795.575439 534.821594,1802.915894 
	C524.278625,1802.915894 513.753540,1802.915894 502.596863,1802.915894 
	C503.403839,1800.511597 504.071655,1798.521851 504.906311,1796.186279 
z"/>
<path fill="#196777" opacity="1.000000" stroke="none" 
	d="
M342.833557,1807.874756 
	C345.399414,1813.688599 344.306824,1818.041504 339.691528,1821.400391 
	C334.716400,1825.020874 329.159912,1825.297363 323.553986,1823.347656 
	C319.659027,1821.993164 317.755249,1818.887085 318.304108,1814.744141 
	C318.872467,1810.453979 321.953217,1808.392700 325.904053,1808.121094 
	C331.368317,1807.745239 336.868652,1807.894775 342.833557,1807.874756 
z"/>
<path fill="#196777" opacity="1.000000" stroke="none" 
	d="
M1127.322510,1796.946045 
	C1128.035400,1798.996094 1128.560059,1800.713867 1129.216187,1802.861816 
	C1118.207275,1802.861816 1107.691040,1802.861816 1097.171143,1802.861816 
	C1097.232178,1795.924194 1101.355713,1790.612793 1108.116699,1788.655884 
	C1115.691162,1786.463379 1122.443481,1789.289062 1127.322510,1796.946045 
z"/>
<path fill="#196777" opacity="1.000000" stroke="none" 
	d="
M1246.041016,1803.190186 
	C1242.737793,1803.190186 1239.928101,1803.190186 1237.124756,1803.190186 
	C1237.327515,1794.648193 1243.420776,1788.474854 1251.649414,1788.031128 
	C1260.801025,1787.537354 1267.236816,1792.980225 1268.842163,1803.190186 
	C1261.345947,1803.190186 1253.940430,1803.190186 1246.041016,1803.190186 
z"/>
<path fill="#1A6878" opacity="1.000000" stroke="none" 
	d="
M859.009399,1823.529297 
	C854.593262,1821.545532 852.922546,1818.446533 853.754150,1814.122559 
	C854.591919,1809.765991 857.914978,1808.220215 861.761658,1808.043335 
	C867.524170,1807.778809 873.307800,1807.974609 878.994812,1807.974609 
	C882.286072,1816.857788 874.884094,1824.341064 865.787842,1824.421997 
	C863.656189,1824.441040 861.520081,1823.965088 859.009399,1823.529297 
z"/>
<path fill="#F9FBFB" opacity="1.000000" stroke="none" 
	d="
M882.035034,336.059143 
	C893.252686,414.214020 842.855957,486.896271 766.136169,501.549042 
	C679.839050,518.030945 606.985962,459.664215 593.779236,383.777130 
	C580.322510,306.453918 630.440125,231.499512 706.383789,215.570496 
	C784.207397,199.247147 860.420837,246.535599 879.350159,322.925842 
	C880.389099,327.118256 881.118835,331.387299 882.035034,336.059143 
M602.004150,333.752686 
	C599.280945,349.650879 599.175354,365.542145 601.841492,381.474579 
	C614.712036,458.388702 690.323120,509.898132 766.450012,492.910278 
	C870.169312,469.765137 907.950134,348.797974 844.000549,270.870605 
	C804.837646,223.147705 741.211426,208.114838 686.296875,230.560699 
	C640.384888,249.326828 612.430725,284.190765 602.004150,333.752686 
z"/>
<path fill="#EBF2F3" opacity="1.000000" stroke="none" 
	d="
M332.222870,376.841980 
	C324.419769,370.207764 322.148651,362.004791 324.785919,352.770294 
	C327.595276,342.933105 334.813141,337.890717 345.076782,336.650604 
	C342.595520,317.378204 331.667450,304.440826 314.718384,295.866394 
	C327.466156,297.459076 344.705658,314.748077 347.017120,336.538025 
	C357.788818,337.848511 365.756653,343.205933 367.941986,354.337006 
	C369.889771,364.258118 367.166046,373.242950 357.859863,378.386200 
	C349.473907,383.020905 340.677643,382.882904 332.222870,376.841980 
M356.972168,343.295593 
	C355.480133,342.570831 354.040436,341.699585 352.487579,341.145203 
	C342.601990,337.615906 331.599213,342.949097 328.260925,352.826630 
	C324.786194,363.107788 330.240570,374.249573 340.253143,377.323456 
	C350.785736,380.556976 361.550354,375.089569 364.339111,364.706482 
	C366.562805,356.427124 364.304352,349.289398 356.972168,343.295593 
z"/>
<path fill="#F6F9FA" opacity="1.000000" stroke="none" 
	d="
M1114.958496,376.026794 
	C1111.665161,397.154724 1102.491821,415.254486 1090.534912,432.124756 
	C1089.163696,434.059540 1087.985840,436.986633 1084.758057,434.918243 
	C1081.341309,432.728668 1083.350342,430.398163 1084.894043,428.192963 
	C1093.618286,415.731110 1100.886108,402.569122 1105.081177,387.816284 
	C1113.031250,359.857849 1107.231689,334.437805 1090.581665,311.303436 
	C1084.973022,303.510376 1078.032837,296.674683 1071.685913,289.414734 
	C1070.085083,287.583649 1067.503540,285.937347 1070.128662,283.182190 
	C1072.893677,280.280151 1074.880737,282.594116 1076.800659,284.474945 
	C1093.802002,301.131042 1107.787354,319.665466 1113.493408,343.367401 
	C1116.057251,354.017578 1116.597656,364.750122 1114.958496,376.026794 
z"/>
<path fill="#F7FAFA" opacity="1.000000" stroke="none" 
	d="
M1181.504272,343.496826 
	C1187.171875,369.100189 1181.452271,392.384766 1169.292480,414.465698 
	C1165.932617,420.566650 1162.115967,426.444458 1158.098511,432.134888 
	C1157.094238,433.557556 1154.007935,434.998077 1152.729370,434.449005 
	C1149.442383,433.037262 1151.003662,430.417847 1152.527466,428.284973 
	C1161.278809,416.036682 1168.502563,402.993500 1172.749390,388.480591 
	C1180.938354,360.496613 1175.592407,334.776489 1158.746338,311.457642 
	C1152.835693,303.275818 1145.445557,296.173462 1138.989502,288.364319 
	C1137.955200,287.113190 1138.284180,284.734894 1137.982910,282.877686 
	C1139.868774,282.980469 1142.490356,282.310486 1143.531372,283.301147 
	C1161.127930,300.047150 1175.615356,318.832855 1181.504272,343.496826 
z"/>
<path fill="#F7FAFA" opacity="1.000000" stroke="none" 
	d="
M1251.028442,376.044861 
	C1248.130737,398.517822 1238.335815,417.603180 1225.675659,435.400848 
	C1224.772827,436.670013 1221.838013,437.772430 1220.563965,437.239838 
	C1217.676636,436.032806 1218.584595,433.560791 1220.097534,431.438538 
	C1228.631958,419.466675 1235.792480,406.789917 1240.140137,392.646576 
	C1248.949219,363.989532 1243.644287,337.706360 1226.289917,313.771606 
	C1220.751587,306.133179 1213.979492,299.386993 1207.738403,292.261841 
	C1206.025024,290.305817 1203.219849,288.550537 1205.922607,285.623840 
	C1208.656616,282.663208 1210.635620,285.170624 1212.541138,287.017853 
	C1227.144287,301.173859 1239.498047,316.871613 1246.417969,336.316376 
	C1250.955078,349.065491 1252.511108,362.150024 1251.028442,376.044861 
z"/>
<path fill="#166575" opacity="1.000000" stroke="none" 
	d="
M602.054199,333.325378 
	C612.430725,284.190765 640.384888,249.326828 686.296875,230.560699 
	C741.211426,208.114838 804.837646,223.147705 844.000549,270.870605 
	C907.950134,348.797974 870.169312,469.765137 766.450012,492.910278 
	C690.323120,509.898132 614.712036,458.388702 601.841492,381.474579 
	C599.175354,365.542145 599.280945,349.650879 602.054199,333.325378 
z"/>
<path fill="#196777" opacity="1.000000" stroke="none" 
	d="
M357.269104,343.524323 
	C364.304352,349.289398 366.562805,356.427124 364.339111,364.706482 
	C361.550354,375.089569 350.785736,380.556976 340.253143,377.323456 
	C330.240570,374.249573 324.786194,363.107788 328.260925,352.826630 
	C331.599213,342.949097 342.601990,337.615906 352.487579,341.145203 
	C354.040436,341.699585 355.480133,342.570831 357.269104,343.524323 
z"/>
</svg>