<svg version="1.1" id="Layer_1" xmlns="http://www.w3.org/2000/svg" xmlns:xlink="http://www.w3.org/1999/xlink" x="0px" y="0px"
	 width="100%" viewBox="0 0 1000 400" enable-background="new 0 0 1000 400" xml:space="preserve">
<path fill="#166575" opacity="1.000000" stroke="none" 
	d="
M700.000000,401.000000 
	C466.666656,401.000000 233.833328,401.000000 1.000000,401.000000 
	C1.000000,267.666656 1.000000,134.333328 1.000000,1.000000 
	C334.333344,1.000000 667.666687,1.000000 1001.000000,1.000000 
	C1001.000000,134.333328 1001.000000,267.666656 1001.000000,401.000000 
	C900.833313,401.000000 800.666687,401.000000 700.000000,401.000000 
M142.537048,120.959572 
	C139.069580,120.959572 135.602112,120.959572 131.948181,120.959572 
	C131.948181,149.123306 131.948181,176.889053 131.948181,204.985794 
	C144.277054,204.985794 156.408173,205.039917 168.538101,204.943283 
	C171.181229,204.922211 173.838028,204.469833 176.457993,204.032990 
	C197.035843,200.601929 210.907043,184.169312 210.971954,163.207260 
	C211.037903,141.907669 197.348846,124.977135 176.393219,122.119179 
	C165.585403,120.645187 154.490219,121.278458 142.537048,120.959572 
M791.663879,188.481232 
	C791.663879,181.185791 791.663879,173.890335 791.663879,166.038437 
	C806.342224,166.038437 820.575928,166.038437 834.668152,166.038437 
	C834.668152,163.239594 834.668152,161.024307 834.668152,158.320984 
	C820.228210,158.320984 806.152222,158.320984 791.993652,158.320984 
	C791.993652,148.247437 791.993652,138.686523 791.993652,128.759888 
	C808.089111,128.759888 823.860840,128.759888 839.945923,128.759888 
	C839.945923,125.989685 839.945923,123.589615 839.945923,121.116165 
	C820.853271,121.116165 802.046509,121.116165 782.994873,121.116165 
	C782.994873,149.041122 782.994873,176.812073 782.994873,204.728943 
	C802.692078,204.728943 822.259216,204.728943 841.812256,204.728943 
	C841.812256,202.176605 841.812256,199.921188 841.812256,197.057068 
	C824.994202,197.057068 808.440308,197.057068 791.663818,197.057068 
	C791.663818,194.120422 791.663818,191.797043 791.663879,188.481232 
M564.591492,198.842865 
	C553.336670,174.220123 542.030090,149.620728 530.894226,124.944283 
	C529.545532,121.955582 528.034607,120.733635 524.621155,120.814362 
	C521.388306,120.890816 519.662903,121.673798 518.267273,124.789986 
	C508.559082,146.466141 498.621399,168.039536 488.756714,189.645599 
	C486.495483,194.598236 484.231964,199.549866 481.914368,204.622528 
	C490.743805,205.587814 490.742859,205.587387 494.071228,198.168243 
	C495.838715,194.228317 497.803986,190.362839 499.316345,186.327454 
	C500.442688,183.322067 502.244629,182.481430 505.331146,182.554138 
	C513.816833,182.754074 522.310730,182.574356 530.800659,182.639816 
	C536.440125,182.683289 543.332031,180.955399 547.364136,183.568314 
	C551.386108,186.174713 552.598389,193.178726 554.940186,198.301483 
	C558.307739,205.668060 558.268250,205.686111 567.004883,204.582047 
	C566.292480,202.856812 565.607544,201.198166 564.591492,198.842865 
M305.055603,140.312881 
	C302.710938,135.177551 300.147125,130.127502 298.103363,124.875084 
	C296.865967,121.695030 295.086121,120.823341 291.777222,120.818527 
	C288.461945,120.813698 286.905090,121.826584 285.529449,124.887413 
	C275.115723,148.058151 264.473724,171.126297 253.907547,194.228531 
	C252.332184,197.672958 250.780807,201.128342 249.162643,204.701675 
	C257.998901,205.481201 257.994659,205.479279 261.323578,198.106796 
	C263.168457,194.020966 264.796326,189.809799 267.003052,185.928635 
	C267.851501,184.436371 270.018829,182.796829 271.613831,182.767258 
	C285.089783,182.517456 298.573883,182.532761 312.050812,182.754562 
	C313.548248,182.779205 315.635437,184.256851 316.382355,185.637695 
	C318.667023,189.861404 320.427032,194.368500 322.398956,198.761841 
	C325.582947,205.855530 325.585602,205.854340 334.375916,204.426392 
	C324.661072,183.207016 315.002075,162.109650 305.055603,140.312881 
M428.514709,169.104294 
	C435.523346,153.247086 442.531982,137.389862 449.512970,121.595245 
	C442.933807,119.437408 439.552002,121.623741 437.784485,127.520576 
	C436.601013,131.468887 434.521606,135.149582 432.832031,138.945084 
	C424.801117,156.985977 416.766388,175.025146 408.460571,193.676819 
	C407.470245,191.599777 406.726990,190.137527 406.065674,188.639099 
	C397.074493,168.266876 388.093506,147.890137 379.112579,127.513374 
	C375.894867,120.212738 375.897949,120.211380 367.249756,121.402489 
	C367.249756,121.724594 367.144806,122.095230 367.264709,122.366470 
	C379.090088,149.117218 390.989624,175.835449 402.702576,202.635239 
	C404.194000,206.047714 406.740265,204.665344 408.987061,205.012054 
	C411.382416,205.381683 412.895874,204.664642 413.948456,202.193802 
	C418.572418,191.339554 423.411102,180.576797 428.514709,169.104294 
M652.496826,197.209915 
	C642.413147,197.209915 632.329529,197.209915 621.830627,197.209915 
	C621.830627,171.517197 621.830627,146.460953 621.830627,121.266998 
	C618.683044,121.266998 615.970276,121.266998 613.243591,121.266998 
	C613.243591,149.273392 613.243591,176.977142 613.243591,204.708130 
	C631.917603,204.708130 650.302307,204.708130 668.658447,204.708130 
	C668.658447,202.154434 668.658447,199.908920 668.658447,197.209915 
	C663.415222,197.209915 658.454773,197.209915 652.496826,197.209915 
M714.959290,158.500000 
	C714.959290,173.927155 714.959290,189.354309 714.959290,204.788803 
	C718.199219,204.788803 720.802795,204.788803 723.650757,204.788803 
	C723.650757,176.847504 723.650757,149.126144 723.650757,121.278702 
	C720.672729,121.278702 717.957947,121.278702 714.959290,121.278702 
	C714.959290,133.557755 714.959290,145.528885 714.959290,158.500000 
M533.660278,279.932953 
	C530.405396,278.109161 527.217163,274.948730 523.879700,274.782471 
	C519.158569,274.547241 514.327393,276.522705 509.822632,277.493103 
	C508.997467,276.698273 507.679474,275.428711 506.361450,274.159180 
	C505.929108,274.487366 505.496765,274.815582 505.064423,275.143768 
	C505.064423,288.414185 505.025391,301.684967 505.149109,314.954224 
	C505.157684,315.873169 506.377533,316.780823 507.034058,317.693726 
	C507.829346,316.737396 509.249786,315.819336 509.311066,314.818085 
	C509.568665,310.609924 509.419891,306.376892 509.419891,302.178986 
	C513.050232,303.660461 515.938782,305.452026 519.041321,305.975616 
	C525.189819,307.013367 530.726501,305.267792 534.248047,299.761658 
	C538.296570,293.431549 538.118713,286.915222 533.660278,279.932953 
M161.652008,275.626282 
	C155.017792,272.891205 149.093948,274.290009 143.186981,279.623474 
	C143.186981,273.199615 143.186981,267.657776 143.186981,262.115906 
	C142.757462,261.799042 142.327942,261.482208 141.898422,261.165344 
	C140.913376,262.084106 139.082458,262.991760 139.070190,263.923340 
	C138.886719,277.855408 138.943283,291.790619 138.943283,305.816345 
	C140.488495,305.816345 141.594788,305.816345 142.872101,305.816345 
	C142.974792,304.241913 143.066055,302.842804 143.167831,301.282471 
	C152.961884,308.363861 162.831940,307.599304 168.134155,299.552216 
	C173.440155,291.499390 170.937836,281.281189 161.652008,275.626282 
M287.846466,284.996613 
	C291.211670,281.783081 294.576904,278.569580 297.942108,275.356079 
	C297.558899,274.906769 297.175690,274.457458 296.792480,274.008179 
	C287.638245,276.433197 283.348450,285.852295 274.944641,290.499207 
	C274.944641,280.776672 274.944641,271.552673 274.944641,262.080078 
	C273.153351,262.080078 271.811951,262.080078 270.278046,262.080078 
	C270.278046,275.975891 270.326538,289.446381 270.246918,302.916168 
	C270.224609,306.692657 272.128662,306.300873 275.015503,305.493652 
	C273.451935,298.522827 276.190643,293.847900 282.109497,290.995667 
	C288.203522,295.444855 290.047028,304.568726 298.845215,305.763947 
	C295.405853,300.157257 291.319214,295.179230 287.551697,289.970337 
	C286.813202,288.949341 287.309998,287.034821 287.846466,284.996613 
M744.777771,291.691345 
	C745.349487,290.409058 746.515259,289.068359 746.395874,287.854034 
	C745.652954,280.297150 740.287476,275.079163 732.797974,274.260345 
	C725.783936,273.493469 719.250427,277.708710 716.904663,284.514252 
	C714.340759,291.952637 716.928589,299.934570 723.166016,303.826813 
	C728.884827,307.395447 738.817810,307.035553 742.811218,302.868317 
	C743.541016,302.106812 743.261047,300.377655 743.600769,298.037018 
	C731.766541,305.379028 721.513245,302.096436 721.029419,291.719330 
	C728.663635,291.719330 736.284180,291.719330 744.777771,291.691345 
M335.003296,299.275116 
	C325.751801,305.497467 315.856415,302.109253 314.541656,291.781311 
	C322.965607,291.781311 331.341766,291.781311 340.032745,291.781311 
	C340.032745,289.666168 340.252686,288.022491 339.994843,286.457611 
	C338.857788,279.557129 332.872375,274.509216 325.651825,274.201050 
	C318.583740,273.899384 312.321136,278.458313 310.342407,285.345764 
	C308.227509,292.707001 311.079956,300.397766 317.269745,304.023499 
	C323.166260,307.477356 333.132996,306.789032 336.948181,302.693634 
	C338.972473,300.520630 337.668121,299.618195 335.003296,299.275116 
M814.344299,280.959686 
	C809.719299,290.075195 811.572327,299.295380 818.945679,303.855469 
	C825.832520,308.114685 835.403687,306.792633 839.795959,300.188049 
	C838.272827,299.887238 836.676636,299.830688 835.485352,300.497467 
	C827.038879,305.224792 817.882568,301.331482 816.481995,291.646118 
	C825.045471,291.646118 833.526672,291.646118 841.935608,291.646118 
	C842.455200,283.534729 839.188904,277.820953 833.070068,275.359985 
	C826.546448,272.736206 819.998352,274.533691 814.344299,280.959686 
M227.944290,293.487793 
	C227.944290,297.598816 227.944290,301.709808 227.944290,305.989807 
	C229.632172,305.913208 230.724564,305.863617 232.340027,305.790283 
	C230.577850,298.616760 233.824509,294.090424 239.849442,290.580048 
	C243.176376,294.727692 246.413467,299.137848 250.082077,303.153839 
	C251.563873,304.775940 253.988922,305.536377 255.984711,306.688934 
	C256.298248,306.242188 256.611755,305.795441 256.925262,305.348694 
	C252.252792,299.400482 247.580307,293.452271 242.425186,286.889648 
	C246.607819,282.652740 250.571381,278.637756 254.534927,274.622772 
	C245.327942,277.218536 240.321945,285.873810 232.117661,291.009796 
	C232.117661,281.851959 232.034592,273.390961 232.157181,264.932922 
	C232.208633,261.382935 230.765533,261.087067 227.944290,262.368469 
	C227.944290,272.520844 227.944290,282.505707 227.944290,293.487793 
M209.984924,295.481506 
	C209.984680,293.315552 209.961411,291.149292 209.988831,288.983704 
	C210.053864,283.847626 209.802185,278.698669 204.512619,276.002441 
	C198.541977,272.958984 192.507294,273.876190 186.851440,277.022888 
	C185.955246,277.521515 185.852448,279.446167 185.382828,280.711487 
	C191.694931,278.475250 197.004410,276.134216 202.205063,279.630005 
	C204.318161,281.050415 205.028137,284.558228 206.688538,287.708160 
	C200.545013,288.099121 195.867264,288.072357 191.300812,288.771973 
	C185.945679,289.592407 183.452820,292.811707 183.654373,297.558167 
	C183.845200,302.051849 186.986084,305.811798 191.973358,305.865570 
	C196.540497,305.914856 201.122467,304.588745 205.559128,303.890533 
	C206.358765,304.464478 207.695633,305.423950 209.984924,307.067047 
	C209.984924,302.430420 209.984924,299.445007 209.984924,295.481506 
M555.440002,275.824341 
	C553.614319,277.127197 549.138611,277.080048 552.625244,281.316772 
	C557.883423,278.554199 563.334534,276.031494 568.668762,279.746857 
	C570.728088,281.181213 571.334229,284.701996 573.020813,288.120087 
	C569.026917,288.120087 566.710144,288.043793 564.400696,288.141510 
	C562.083679,288.239532 559.731689,288.298187 557.469727,288.749146 
	C552.122253,289.815308 549.688721,292.790894 549.899292,297.607422 
	C550.092407,302.025604 553.316101,305.834167 558.250916,305.872498 
	C562.812988,305.907928 567.385559,304.589508 571.649536,303.915375 
	C572.519043,304.509430 573.862915,305.427612 576.124451,306.972717 
	C576.124451,299.193787 576.201477,293.048492 576.106079,286.905823 
	C575.970093,278.145020 571.266785,273.758911 562.505432,274.268188 
	C560.375183,274.391998 558.276978,275.068604 555.440002,275.824341 
M703.477478,301.787354 
	C706.190796,295.198273 704.615173,291.652496 697.959839,289.748779 
	C694.772156,288.837006 691.376465,288.521484 688.330750,287.298859 
	C686.793579,286.681824 684.725525,284.516205 684.870178,283.281952 
	C685.066406,281.607544 687.027039,278.990417 688.455383,278.834473 
	C692.114807,278.434937 695.895203,279.236023 699.634033,279.414307 
	C700.709045,279.465576 701.807190,279.031372 702.894714,278.819763 
	C702.349426,277.861847 701.870605,276.122284 701.248474,276.069458 
	C696.223511,275.642639 691.079895,274.865417 686.157532,275.541992 
	C682.359680,276.063995 680.031494,279.501251 680.159790,283.684021 
	C680.283752,287.727051 682.797485,290.020935 686.528625,290.991150 
	C689.742676,291.826904 693.148193,292.110046 696.198792,293.319214 
	C697.902893,293.994659 700.375061,296.318604 700.154663,297.437347 
	C699.808899,299.191833 697.525696,301.787201 695.978760,301.846954 
	C691.792419,302.008636 687.570496,300.925507 683.343750,300.548157 
	C681.991028,300.427399 680.579041,300.969696 679.194153,301.208649 
	C687.221497,307.711395 696.495544,307.656494 703.477478,301.787354 
M649.038940,281.825745 
	C652.458984,277.575714 656.441650,276.662750 663.337402,279.290649 
	C666.082703,280.336853 667.271484,280.164978 667.571716,276.960480 
	C662.156067,274.137756 656.528076,273.355164 650.714172,275.254730 
	C646.922058,276.493744 644.466553,279.168762 644.453369,283.360748 
	C644.439880,287.652710 646.999268,290.052338 650.965759,291.047394 
	C654.026489,291.815155 657.291321,292.035278 660.151123,293.243042 
	C661.989319,294.019348 663.257996,296.144531 664.781921,297.665131 
	C663.058472,299.175201 661.370850,301.908630 659.604736,301.960266 
	C654.781372,302.101379 649.924866,301.111542 644.030579,300.452057 
	C644.479919,301.467773 644.691711,303.340057 645.616699,303.810669 
	C651.519775,306.813965 657.766418,307.260956 663.941467,304.787750 
	C667.475891,303.372192 670.004028,300.283875 668.798157,296.545441 
	C667.974609,293.992310 665.417664,291.461487 662.977051,290.111725 
	C660.326843,288.646088 656.694763,289.026062 653.906250,287.716614 
	C651.889404,286.769501 650.550659,284.378143 649.038940,281.825745 
M599.093201,293.248047 
	C599.093201,288.311951 599.093201,283.375854 599.093201,278.018524 
	C602.639160,278.018524 605.574341,278.018524 609.184692,278.018524 
	C607.371094,271.800446 601.831604,276.468994 599.213074,273.498444 
	C599.122681,271.844604 599.017822,269.927734 598.910583,267.966156 
	C592.374451,266.888397 596.332397,272.398346 594.275146,273.639648 
	C592.513428,274.562927 590.751648,275.486237 588.989929,276.409515 
	C589.206848,276.902771 589.423828,277.396027 589.640747,277.889252 
	C591.250244,278.018005 592.859802,278.146790 594.302124,278.262146 
	C594.540894,278.630920 594.708679,278.769592 594.710754,278.910614 
	C594.798523,285.060455 594.770386,291.213837 594.972839,297.359680 
	C595.210693,304.584045 602.096069,308.689423 608.405884,305.343719 
	C609.312317,304.863098 609.656921,303.322998 610.751831,301.421997 
	C600.981812,303.518951 599.242981,302.228638 599.093201,293.248047 
M363.981293,280.273956 
	C365.529633,279.719025 367.244080,279.415344 368.576904,278.534363 
	C369.770996,277.745056 370.544922,276.320099 371.504211,275.175568 
	C370.999573,274.678436 370.494934,274.181274 369.990295,273.684113 
	C366.717377,275.086761 363.444458,276.489410 360.607849,277.705078 
	C359.505127,276.734650 358.250397,275.630432 356.995636,274.526215 
	C356.422028,276.034851 355.385132,277.533569 355.352600,279.053833 
	C355.185333,286.872772 355.372253,294.699005 355.230713,302.518982 
	C355.171661,305.781494 356.340424,306.756409 359.857178,305.474701 
	C359.857178,300.335022 359.451172,294.998230 360.011292,289.764832 
	C360.340942,286.684967 362.204468,283.769257 363.981293,280.273956 
M761.721558,282.689178 
	C761.721558,290.311981 761.721558,297.934814 761.721558,305.758026 
	C763.240479,305.758026 764.456787,305.758026 765.988892,305.758026 
	C765.988892,300.551208 765.946472,295.590210 765.998779,290.630249 
	C766.077637,283.156097 767.997986,280.775177 775.046692,278.413483 
	C776.184509,278.032227 776.884216,276.343536 777.786377,275.259216 
	C777.300537,274.732361 776.814636,274.205505 776.328796,273.678650 
	C772.887695,275.208496 769.446594,276.738373 766.940796,277.852417 
	C765.494690,276.582886 764.182800,275.431213 762.870972,274.279541 
	C762.487854,274.627655 762.104736,274.975769 761.721619,275.323883 
	C761.721619,277.467102 761.721619,279.610352 761.721558,282.689178 
M408.997437,276.178833 
	C408.989746,286.472168 409.023987,296.765778 408.958649,307.058746 
	C408.919678,313.200653 407.020630,314.692139 400.983246,313.866272 
	C400.027252,313.735504 398.958374,314.429810 397.941681,314.742645 
	C398.702759,315.596710 399.300690,316.859222 400.251251,317.238922 
	C406.671875,319.803833 412.858398,316.098358 413.029144,309.305664 
	C413.296051,298.686829 413.117615,288.057098 413.159882,277.432129 
	C413.173340,274.048370 411.578461,273.919220 408.997437,276.178833 
M796.399902,292.485779 
	C796.399597,287.657990 796.287842,282.826782 796.437195,278.003632 
	C796.540649,274.663666 795.269714,273.880890 792.271851,275.091827 
	C792.271851,285.362030 792.271851,295.468445 792.271851,305.714844 
	C793.679871,305.714844 794.891907,305.714844 796.399841,305.714844 
	C796.399841,301.441071 796.399841,297.458588 796.399902,292.485779 
M390.112885,282.536499 
	C390.112030,280.877930 390.045166,279.216217 390.124329,277.561493 
	C390.282471,274.255615 388.679840,274.092529 386.131104,275.124756 
	C386.131104,285.360077 386.131104,295.426514 386.131104,305.590607 
	C388.812683,306.466339 390.237366,306.180969 390.158020,302.928528 
	C390.000305,296.463959 390.112335,289.992859 390.112885,282.536499 
M629.112854,298.423950 
	C629.111816,291.456940 629.045654,284.489044 629.137756,277.523254 
	C629.182617,274.130829 627.583984,274.173248 624.950806,275.204559 
	C624.950806,284.595642 624.947937,293.867706 624.955688,303.139801 
	C624.956360,303.940399 625.026978,304.740967 625.083801,305.934387 
	C631.207031,306.325195 628.369324,301.760498 629.112854,298.423950 
M467.024261,289.380005 
	C466.501801,288.902802 465.988892,288.024170 465.455353,288.011414 
	C460.852936,287.901886 456.246796,287.948456 450.670959,287.948456 
	C451.490662,289.656891 452.010803,291.531097 452.437866,291.510132 
	C457.302887,291.271332 462.153717,290.743317 467.024261,289.380005 
M793.047241,261.967621 
	C792.674194,263.459167 792.096191,264.950958 792.097717,266.442139 
	C792.098022,266.747498 794.368225,267.465485 795.408264,267.218689 
	C796.189636,267.033234 797.361572,265.049927 797.180054,264.826813 
	C796.224915,263.653107 794.894775,262.784546 793.047241,261.967621 
M391.068695,264.586487 
	C390.563293,261.573639 388.495148,261.099182 386.377228,262.405090 
	C385.628113,262.867035 385.324646,265.760986 385.979431,266.466675 
	C387.862305,268.495758 389.808197,267.839050 391.068695,264.586487 
M624.835205,262.704956 
	C625.001709,264.139679 624.839355,265.759949 625.493591,266.919556 
	C625.762268,267.395966 628.018738,267.253754 628.943909,266.690857 
	C629.629150,266.273956 630.048950,263.905762 629.859009,263.807007 
	C628.450439,263.074554 626.859558,262.692810 624.835205,262.704956 
M414.104401,264.530487 
	C413.604004,261.521820 411.539276,261.043823 409.422699,262.344482 
	C408.671967,262.805847 408.361145,265.711823 409.012207,266.397034 
	C410.867371,268.349609 412.850800,267.828186 414.104401,264.530487 
z"/>
<path fill="#F7F9FA" opacity="1.000000" stroke="none" 
	d="
M143.030960,120.959579 
	C154.490219,121.278458 165.585403,120.645187 176.393219,122.119179 
	C197.348846,124.977135 211.037903,141.907669 210.971954,163.207260 
	C210.907043,184.169312 197.035843,200.601929 176.457993,204.032990 
	C173.838028,204.469833 171.181229,204.922211 168.538101,204.943283 
	C156.408173,205.039917 144.277054,204.985794 131.948181,204.985794 
	C131.948181,176.889053 131.948181,149.123306 131.948181,120.959572 
	C135.602112,120.959572 139.069580,120.959572 143.030960,120.959579 
M178.595520,195.409836 
	C194.080872,190.101089 202.242905,178.549774 202.062454,162.198395 
	C201.894745,147.002670 193.202896,133.886200 178.475555,130.841568 
	C166.326492,128.329956 153.557907,128.815125 140.914459,127.962242 
	C140.914459,151.853897 140.914459,174.260452 140.914459,197.868179 
	C153.419525,197.139511 165.628281,196.428101 178.595520,195.409836 
z"/>
<path fill="#F7FAFB" opacity="1.000000" stroke="none" 
	d="
M791.663818,188.977448 
	C791.663818,191.797043 791.663818,194.120422 791.663818,197.057068 
	C808.440308,197.057068 824.994202,197.057068 841.812256,197.057068 
	C841.812256,199.921188 841.812256,202.176605 841.812256,204.728943 
	C822.259216,204.728943 802.692078,204.728943 782.994873,204.728943 
	C782.994873,176.812073 782.994873,149.041122 782.994873,121.116165 
	C802.046509,121.116165 820.853271,121.116165 839.945923,121.116165 
	C839.945923,123.589615 839.945923,125.989685 839.945923,128.759888 
	C823.860840,128.759888 808.089111,128.759888 791.993652,128.759888 
	C791.993652,138.686523 791.993652,148.247437 791.993652,158.320984 
	C806.152222,158.320984 820.228210,158.320984 834.668152,158.320984 
	C834.668152,161.024307 834.668152,163.239594 834.668152,166.038437 
	C820.575928,166.038437 806.342224,166.038437 791.663879,166.038437 
	C791.663879,173.890335 791.663879,181.185791 791.663818,188.977448 
z"/>
<path fill="#F5F9F9" opacity="1.000000" stroke="none" 
	d="
M564.757080,199.191193 
	C565.607544,201.198166 566.292480,202.856812 567.004883,204.582047 
	C558.268250,205.686111 558.307739,205.668060 554.940186,198.301483 
	C552.598389,193.178726 551.386108,186.174713 547.364136,183.568314 
	C543.332031,180.955399 536.440125,182.683289 530.800659,182.639816 
	C522.310730,182.574356 513.816833,182.754074 505.331146,182.554138 
	C502.244629,182.481430 500.442688,183.322067 499.316345,186.327454 
	C497.803986,190.362839 495.838715,194.228317 494.071228,198.168243 
	C490.742859,205.587387 490.743805,205.587814 481.914368,204.622528 
	C484.231964,199.549866 486.495483,194.598236 488.756714,189.645599 
	C498.621399,168.039536 508.559082,146.466141 518.267273,124.789986 
	C519.662903,121.673798 521.388306,120.890816 524.621155,120.814362 
	C528.034607,120.733635 529.545532,121.955582 530.894226,124.944283 
	C542.030090,149.620728 553.336670,174.220123 564.757080,199.191193 
M524.499878,175.238907 
	C530.922485,175.238907 537.345032,175.238907 544.564941,175.238907 
	C537.746643,159.966415 531.278381,145.477829 524.482300,130.255066 
	C517.688232,145.475479 511.219360,159.967316 504.402435,175.238907 
	C511.313904,175.238907 517.407166,175.238907 524.499878,175.238907 
z"/>
<path fill="#F5F9F9" opacity="1.000000" stroke="none" 
	d="
M305.199341,140.662582 
	C315.002075,162.109650 324.661072,183.207016 334.375916,204.426392 
	C325.585602,205.854340 325.582947,205.855530 322.398956,198.761841 
	C320.427032,194.368500 318.667023,189.861404 316.382355,185.637695 
	C315.635437,184.256851 313.548248,182.779205 312.050812,182.754562 
	C298.573883,182.532761 285.089783,182.517456 271.613831,182.767258 
	C270.018829,182.796829 267.851501,184.436371 267.003052,185.928635 
	C264.796326,189.809799 263.168457,194.020966 261.323578,198.106796 
	C257.994659,205.479279 257.998901,205.481201 249.162643,204.701675 
	C250.780807,201.128342 252.332184,197.672958 253.907547,194.228531 
	C264.473724,171.126297 275.115723,148.058151 285.529449,124.887413 
	C286.905090,121.826584 288.461945,120.813698 291.777222,120.818527 
	C295.086121,120.823341 296.865967,121.695030 298.103363,124.875084 
	C300.147125,130.127502 302.710938,135.177551 305.199341,140.662582 
M295.003754,137.559784 
	C293.992554,135.390793 292.981384,133.221802 291.655273,130.377319 
	C284.812988,145.739227 278.363586,160.219147 271.778656,175.003311 
	C285.312866,175.003311 298.089691,175.003311 311.706757,175.003311 
	C306.080475,162.421219 300.678589,150.340958 295.003754,137.559784 
z"/>
<path fill="#F9FBFB" opacity="1.000000" stroke="none" 
	d="
M428.343323,169.442596 
	C423.411102,180.576797 418.572418,191.339554 413.948456,202.193802 
	C412.895874,204.664642 411.382416,205.381683 408.987061,205.012054 
	C406.740265,204.665344 404.194000,206.047714 402.702576,202.635239 
	C390.989624,175.835449 379.090088,149.117218 367.264709,122.366470 
	C367.144806,122.095230 367.249756,121.724594 367.249756,121.402489 
	C375.897949,120.211380 375.894867,120.212738 379.112579,127.513374 
	C388.093506,147.890137 397.074493,168.266876 406.065674,188.639099 
	C406.726990,190.137527 407.470245,191.599777 408.460571,193.676819 
	C416.766388,175.025146 424.801117,156.985977 432.832031,138.945084 
	C434.521606,135.149582 436.601013,131.468887 437.784485,127.520576 
	C439.552002,121.623741 442.933807,119.437408 449.512970,121.595245 
	C442.531982,137.389862 435.523346,153.247086 428.343323,169.442596 
z"/>
<path fill="#F9FBFC" opacity="1.000000" stroke="none" 
	d="
M652.995605,197.209915 
	C658.454773,197.209915 663.415222,197.209915 668.658447,197.209915 
	C668.658447,199.908920 668.658447,202.154434 668.658447,204.708130 
	C650.302307,204.708130 631.917603,204.708130 613.243591,204.708130 
	C613.243591,176.977142 613.243591,149.273392 613.243591,121.266998 
	C615.970276,121.266998 618.683044,121.266998 621.830627,121.266998 
	C621.830627,146.460953 621.830627,171.517197 621.830627,197.209915 
	C632.329529,197.209915 642.413147,197.209915 652.995605,197.209915 
z"/>
<path fill="#FBFCFC" opacity="1.000000" stroke="none" 
	d="
M714.959290,158.000000 
	C714.959290,145.528885 714.959290,133.557755 714.959290,121.278702 
	C717.957947,121.278702 720.672729,121.278702 723.650757,121.278702 
	C723.650757,149.126144 723.650757,176.847504 723.650757,204.788803 
	C720.802795,204.788803 718.199219,204.788803 714.959290,204.788803 
	C714.959290,189.354309 714.959290,173.927155 714.959290,158.000000 
z"/>
<path fill="#EFF4F5" opacity="1.000000" stroke="none" 
	d="
M533.877502,280.235840 
	C538.118713,286.915222 538.296570,293.431549 534.248047,299.761658 
	C530.726501,305.267792 525.189819,307.013367 519.041321,305.975616 
	C515.938782,305.452026 513.050232,303.660461 509.419891,302.178986 
	C509.419891,306.376892 509.568665,310.609924 509.311066,314.818085 
	C509.249786,315.819336 507.829346,316.737396 507.034058,317.693726 
	C506.377533,316.780823 505.157684,315.873169 505.149109,314.954224 
	C505.025391,301.684967 505.064423,288.414185 505.064423,275.143768 
	C505.496765,274.815582 505.929108,274.487366 506.361450,274.159180 
	C507.679474,275.428711 508.997467,276.698273 509.822632,277.493103 
	C514.327393,276.522705 519.158569,274.547241 523.879700,274.782471 
	C527.217163,274.948730 530.405396,278.109161 533.877502,280.235840 
M519.732849,302.340515 
	C525.298096,302.750275 529.539673,300.706055 531.773865,295.445251 
	C534.629456,288.721069 531.617371,281.259583 525.236633,278.836182 
	C518.867126,276.417084 511.984711,279.708557 510.034637,286.106323 
	C507.728088,293.673523 511.249847,300.073486 519.732849,302.340515 
z"/>
<path fill="#F5F9F9" opacity="1.000000" stroke="none" 
	d="
M162.001801,275.782715 
	C170.937836,281.281189 173.440155,291.499390 168.134155,299.552216 
	C162.831940,307.599304 152.961884,308.363861 143.167831,301.282471 
	C143.066055,302.842804 142.974792,304.241913 142.872101,305.816345 
	C141.594788,305.816345 140.488495,305.816345 138.943283,305.816345 
	C138.943283,291.790619 138.886719,277.855408 139.070190,263.923340 
	C139.082458,262.991760 140.913376,262.084106 141.898422,261.165344 
	C142.327942,261.482208 142.757462,261.799042 143.186981,262.115906 
	C143.186981,267.657776 143.186981,273.199615 143.186981,279.623474 
	C149.093948,274.290009 155.017792,272.891205 162.001801,275.782715 
M163.439835,298.870636 
	C169.448288,289.826599 165.790298,279.206146 156.279205,278.080780 
	C151.061050,277.463379 146.167191,280.213837 144.166672,284.888336 
	C141.920334,290.137268 143.267181,296.504730 147.343216,299.905853 
	C151.602402,303.459808 157.310745,303.284790 163.439835,298.870636 
z"/>
<path fill="#E7EFF1" opacity="1.000000" stroke="none" 
	d="
M287.541748,285.264526 
	C287.309998,287.034821 286.813202,288.949341 287.551697,289.970337 
	C291.319214,295.179230 295.405853,300.157257 298.845215,305.763947 
	C290.047028,304.568726 288.203522,295.444855 282.109497,290.995667 
	C276.190643,293.847900 273.451935,298.522827 275.015503,305.493652 
	C272.128662,306.300873 270.224609,306.692657 270.246918,302.916168 
	C270.326538,289.446381 270.278046,275.975891 270.278046,262.080078 
	C271.811951,262.080078 273.153351,262.080078 274.944641,262.080078 
	C274.944641,271.552673 274.944641,280.776672 274.944641,290.499207 
	C283.348450,285.852295 287.638245,276.433197 296.792480,274.008179 
	C297.175690,274.457458 297.558899,274.906769 297.942108,275.356079 
	C294.576904,278.569580 291.211670,281.783081 287.541748,285.264526 
z"/>
<path fill="#E7EFF1" opacity="1.000000" stroke="none" 
	d="
M744.341309,291.705322 
	C736.284180,291.719330 728.663635,291.719330 721.029419,291.719330 
	C721.513245,302.096436 731.766541,305.379028 743.600769,298.037018 
	C743.261047,300.377655 743.541016,302.106812 742.811218,302.868317 
	C738.817810,307.035553 728.884827,307.395447 723.166016,303.826813 
	C716.928589,299.934570 714.340759,291.952637 716.904663,284.514252 
	C719.250427,277.708710 725.783936,273.493469 732.797974,274.260345 
	C740.287476,275.079163 745.652954,280.297150 746.395874,287.854034 
	C746.515259,289.068359 745.349487,290.409058 744.341309,291.705322 
M733.879272,278.234894 
	C725.599487,277.782715 721.705688,280.628143 720.960693,287.870789 
	C727.967712,287.870789 734.947449,287.870789 742.176331,287.870789 
	C741.630737,282.725037 738.872986,279.999115 733.879272,278.234894 
z"/>
<path fill="#E9F0F2" opacity="1.000000" stroke="none" 
	d="
M335.299377,299.119476 
	C337.668121,299.618195 338.972473,300.520630 336.948181,302.693634 
	C333.132996,306.789032 323.166260,307.477356 317.269745,304.023499 
	C311.079956,300.397766 308.227509,292.707001 310.342407,285.345764 
	C312.321136,278.458313 318.583740,273.899384 325.651825,274.201050 
	C332.872375,274.509216 338.857788,279.557129 339.994843,286.457611 
	C340.252686,288.022491 340.032745,289.666168 340.032745,291.781311 
	C331.341766,291.781311 322.965607,291.781311 314.541656,291.781311 
	C315.856415,302.109253 325.751801,305.497467 335.299377,299.119476 
M317.051880,288.293427 
	C323.294647,288.293427 329.537415,288.293427 335.874878,288.293427 
	C334.792877,281.795288 331.444672,278.485870 326.122864,278.066681 
	C320.937317,277.658203 316.233093,280.553040 314.916687,285.272644 
	C314.687836,286.093140 315.726624,287.267212 317.051880,288.293427 
z"/>
<path fill="#E9F0F2" opacity="1.000000" stroke="none" 
	d="
M814.566956,280.668884 
	C819.998352,274.533691 826.546448,272.736206 833.070068,275.359985 
	C839.188904,277.820953 842.455200,283.534729 841.935608,291.646118 
	C833.526672,291.646118 825.045471,291.646118 816.481995,291.646118 
	C817.882568,301.331482 827.038879,305.224792 835.485352,300.497467 
	C836.676636,299.830688 838.272827,299.887238 839.795959,300.188049 
	C835.403687,306.792633 825.832520,308.114685 818.945679,303.855469 
	C811.572327,299.295380 809.719299,290.075195 814.566956,280.668884 
M828.221863,278.070038 
	C820.715576,278.338989 817.493713,281.039246 816.481995,288.077454 
	C823.562134,288.077454 830.614197,288.077454 837.953369,288.077454 
	C837.406433,282.286163 834.165222,279.365753 828.221863,278.070038 
z"/>
<path fill="#F9FBFB" opacity="1.000000" stroke="none" 
	d="
M227.944290,292.989166 
	C227.944290,282.505707 227.944290,272.520844 227.944290,262.368469 
	C230.765533,261.087067 232.208633,261.382935 232.157181,264.932922 
	C232.034592,273.390961 232.117661,281.851959 232.117661,291.009796 
	C240.321945,285.873810 245.327942,277.218536 254.534927,274.622772 
	C250.571381,278.637756 246.607819,282.652740 242.425186,286.889648 
	C247.580307,293.452271 252.252792,299.400482 256.925262,305.348694 
	C256.611755,305.795441 256.298248,306.242188 255.984711,306.688934 
	C253.988922,305.536377 251.563873,304.775940 250.082077,303.153839 
	C246.413467,299.137848 243.176376,294.727692 239.849442,290.580048 
	C233.824509,294.090424 230.577850,298.616760 232.340027,305.790283 
	C230.724564,305.863617 229.632172,305.913208 227.944290,305.989807 
	C227.944290,301.709808 227.944290,297.598816 227.944290,292.989166 
z"/>
<path fill="#F3F7F8" opacity="1.000000" stroke="none" 
	d="
M209.984924,295.970551 
	C209.984924,299.445007 209.984924,302.430420 209.984924,307.067047 
	C207.695633,305.423950 206.358765,304.464478 205.559128,303.890533 
	C201.122467,304.588745 196.540497,305.914856 191.973358,305.865570 
	C186.986084,305.811798 183.845200,302.051849 183.654373,297.558167 
	C183.452820,292.811707 185.945679,289.592407 191.300812,288.771973 
	C195.867264,288.072357 200.545013,288.099121 206.688538,287.708160 
	C205.028137,284.558228 204.318161,281.050415 202.205063,279.630005 
	C197.004410,276.134216 191.694931,278.475250 185.382828,280.711487 
	C185.852448,279.446167 185.955246,277.521515 186.851440,277.022888 
	C192.507294,273.876190 198.541977,272.958984 204.512619,276.002441 
	C209.802185,278.698669 210.053864,283.847626 209.988831,288.983704 
	C209.961411,291.149292 209.984680,293.315552 209.984924,295.970551 
M192.293213,302.516113 
	C201.737045,303.855804 206.694412,299.747986 205.112427,291.650055 
	C201.218597,291.650055 197.200165,291.187408 193.372162,291.840607 
	C191.386841,292.179382 188.425522,294.365051 188.271484,295.946777 
	C188.080551,297.907501 190.341629,300.106995 192.293213,302.516113 
z"/>
<path fill="#F3F7F8" opacity="1.000000" stroke="none" 
	d="
M555.802002,275.657715 
	C558.276978,275.068604 560.375183,274.391998 562.505432,274.268188 
	C571.266785,273.758911 575.970093,278.145020 576.106079,286.905823 
	C576.201477,293.048492 576.124451,299.193787 576.124451,306.972717 
	C573.862915,305.427612 572.519043,304.509430 571.649536,303.915375 
	C567.385559,304.589508 562.812988,305.907928 558.250916,305.872498 
	C553.316101,305.834167 550.092407,302.025604 549.899292,297.607422 
	C549.688721,292.790894 552.122253,289.815308 557.469727,288.749146 
	C559.731689,288.298187 562.083679,288.239532 564.400696,288.141510 
	C566.710144,288.043793 569.026917,288.120087 573.020813,288.120087 
	C571.334229,284.701996 570.728088,281.181213 568.668762,279.746857 
	C563.334534,276.031494 557.883423,278.554199 552.625244,281.316772 
	C549.138611,277.080048 553.614319,277.127197 555.802002,275.657715 
M554.022400,297.384583 
	C555.844727,302.258881 559.730652,304.072723 565.104614,302.557556 
	C570.488464,301.039673 572.534485,297.460846 571.307617,291.685272 
	C567.344849,291.685272 563.270691,291.144684 559.454895,291.903442 
	C557.414490,292.309204 555.819519,294.955048 554.022400,297.384583 
z"/>
<path fill="#EFF4F5" opacity="1.000000" stroke="none" 
	d="
M703.245300,302.088806 
	C696.495544,307.656494 687.221497,307.711395 679.194153,301.208649 
	C680.579041,300.969696 681.991028,300.427399 683.343750,300.548157 
	C687.570496,300.925507 691.792419,302.008636 695.978760,301.846954 
	C697.525696,301.787201 699.808899,299.191833 700.154663,297.437347 
	C700.375061,296.318604 697.902893,293.994659 696.198792,293.319214 
	C693.148193,292.110046 689.742676,291.826904 686.528625,290.991150 
	C682.797485,290.020935 680.283752,287.727051 680.159790,283.684021 
	C680.031494,279.501251 682.359680,276.063995 686.157532,275.541992 
	C691.079895,274.865417 696.223511,275.642639 701.248474,276.069458 
	C701.870605,276.122284 702.349426,277.861847 702.894714,278.819763 
	C701.807190,279.031372 700.709045,279.465576 699.634033,279.414307 
	C695.895203,279.236023 692.114807,278.434937 688.455383,278.834473 
	C687.027039,278.990417 685.066406,281.607544 684.870178,283.281952 
	C684.725525,284.516205 686.793579,286.681824 688.330750,287.298859 
	C691.376465,288.521484 694.772156,288.837006 697.959839,289.748779 
	C704.615173,291.652496 706.190796,295.198273 703.245300,302.088806 
z"/>
<path fill="#EFF4F5" opacity="1.000000" stroke="none" 
	d="
M648.974243,282.228302 
	C650.550659,284.378143 651.889404,286.769501 653.906250,287.716614 
	C656.694763,289.026062 660.326843,288.646088 662.977051,290.111725 
	C665.417664,291.461487 667.974609,293.992310 668.798157,296.545441 
	C670.004028,300.283875 667.475891,303.372192 663.941467,304.787750 
	C657.766418,307.260956 651.519775,306.813965 645.616699,303.810669 
	C644.691711,303.340057 644.479919,301.467773 644.030579,300.452057 
	C649.924866,301.111542 654.781372,302.101379 659.604736,301.960266 
	C661.370850,301.908630 663.058472,299.175201 664.781921,297.665131 
	C663.257996,296.144531 661.989319,294.019348 660.151123,293.243042 
	C657.291321,292.035278 654.026489,291.815155 650.965759,291.047394 
	C646.999268,290.052338 644.439880,287.652710 644.453369,283.360748 
	C644.466553,279.168762 646.922058,276.493744 650.714172,275.254730 
	C656.528076,273.355164 662.156067,274.137756 667.571716,276.960480 
	C667.271484,280.164978 666.082703,280.336853 663.337402,279.290649 
	C656.441650,276.662750 652.458984,277.575714 648.974243,282.228302 
z"/>
<path fill="#F9FBFC" opacity="1.000000" stroke="none" 
	d="
M599.093262,293.712891 
	C599.242981,302.228638 600.981812,303.518951 610.751831,301.421997 
	C609.656921,303.322998 609.312317,304.863098 608.405884,305.343719 
	C602.096069,308.689423 595.210693,304.584045 594.972839,297.359680 
	C594.770386,291.213837 594.798523,285.060455 594.710754,278.910614 
	C594.708679,278.769592 594.540894,278.630920 594.302124,278.262146 
	C592.859802,278.146790 591.250244,278.018005 589.640747,277.889252 
	C589.423828,277.396027 589.206848,276.902771 588.989929,276.409515 
	C590.751648,275.486237 592.513428,274.562927 594.275146,273.639648 
	C596.332397,272.398346 592.374451,266.888397 598.910583,267.966156 
	C599.017822,269.927734 599.122681,271.844604 599.213074,273.498444 
	C601.831604,276.468994 607.371094,271.800446 609.184692,278.018524 
	C605.574341,278.018524 602.639160,278.018524 599.093201,278.018524 
	C599.093201,283.375854 599.093201,288.311951 599.093262,293.712891 
z"/>
<path fill="#E7EFF1" opacity="1.000000" stroke="none" 
	d="
M363.679688,280.526855 
	C362.204468,283.769257 360.340942,286.684967 360.011292,289.764832 
	C359.451172,294.998230 359.857178,300.335022 359.857178,305.474701 
	C356.340424,306.756409 355.171661,305.781494 355.230713,302.518982 
	C355.372253,294.699005 355.185333,286.872772 355.352600,279.053833 
	C355.385132,277.533569 356.422028,276.034851 356.995667,274.526215 
	C358.250397,275.630432 359.505127,276.734650 360.607849,277.705078 
	C363.444458,276.489410 366.717377,275.086761 369.990295,273.684113 
	C370.494934,274.181274 370.999573,274.678436 371.504211,275.175568 
	C370.544922,276.320099 369.770996,277.745056 368.576904,278.534363 
	C367.244080,279.415344 365.529633,279.719025 363.679688,280.526855 
z"/>
<path fill="#F3F7F8" opacity="1.000000" stroke="none" 
	d="
M761.721558,282.221375 
	C761.721619,279.610352 761.721619,277.467102 761.721619,275.323883 
	C762.104736,274.975769 762.487854,274.627655 762.870972,274.279541 
	C764.182800,275.431213 765.494690,276.582886 766.940796,277.852417 
	C769.446594,276.738373 772.887695,275.208496 776.328796,273.678650 
	C776.814636,274.205505 777.300537,274.732361 777.786377,275.259216 
	C776.884216,276.343536 776.184509,278.032227 775.046692,278.413483 
	C767.997986,280.775177 766.077637,283.156097 765.998779,290.630249 
	C765.946472,295.590210 765.988892,300.551208 765.988892,305.758026 
	C764.456787,305.758026 763.240479,305.758026 761.721558,305.758026 
	C761.721558,297.934814 761.721558,290.311981 761.721558,282.221375 
z"/>
<path fill="#F9FBFC" opacity="1.000000" stroke="none" 
	d="
M409.065063,275.749512 
	C411.578461,273.919220 413.173340,274.048370 413.159882,277.432129 
	C413.117615,288.057098 413.296051,298.686829 413.029144,309.305664 
	C412.858398,316.098358 406.671875,319.803833 400.251251,317.238922 
	C399.300690,316.859222 398.702759,315.596710 397.941681,314.742676 
	C398.958374,314.429810 400.027252,313.735504 400.983246,313.866272 
	C407.020630,314.692139 408.919678,313.200653 408.958649,307.058746 
	C409.023987,296.765778 408.989746,286.472168 409.065063,275.749512 
z"/>
<path fill="#F5F9F9" opacity="1.000000" stroke="none" 
	d="
M796.399902,292.980927 
	C796.399841,297.458588 796.399841,301.441071 796.399841,305.714844 
	C794.891907,305.714844 793.679871,305.714844 792.271851,305.714844 
	C792.271851,295.468445 792.271851,285.362030 792.271851,275.091827 
	C795.269714,273.880890 796.540649,274.663666 796.437195,278.003632 
	C796.287842,282.826782 796.399597,287.657990 796.399902,292.980927 
z"/>
<path fill="#FBFCFC" opacity="1.000000" stroke="none" 
	d="
M390.112915,283.030457 
	C390.112335,289.992859 390.000305,296.463959 390.158020,302.928528 
	C390.237366,306.180969 388.812683,306.466339 386.131104,305.590607 
	C386.131104,295.426514 386.131104,285.360077 386.131104,275.124756 
	C388.679840,274.092529 390.282471,274.255615 390.124329,277.561493 
	C390.045166,279.216217 390.112030,280.877930 390.112915,283.030457 
z"/>
<path fill="#FBFCFC" opacity="1.000000" stroke="none" 
	d="
M629.112854,298.913055 
	C628.369324,301.760498 631.207031,306.325195 625.083801,305.934387 
	C625.026978,304.740967 624.956360,303.940399 624.955688,303.139801 
	C624.947937,293.867706 624.950806,284.595642 624.950806,275.204559 
	C627.583984,274.173248 629.182617,274.130829 629.137756,277.523254 
	C629.045654,284.489044 629.111816,291.456940 629.112854,298.913055 
z"/>
<path fill="#E7EFF1" opacity="1.000000" stroke="none" 
	d="
M467.016296,289.836273 
	C462.153717,290.743317 457.302887,291.271332 452.437866,291.510132 
	C452.010803,291.531097 451.490662,289.656891 450.670959,287.948456 
	C456.246796,287.948456 460.852936,287.901886 465.455353,288.011414 
	C465.988892,288.024170 466.501801,288.902802 467.016296,289.836273 
z"/>
<path fill="#E9F0F2" opacity="1.000000" stroke="none" 
	d="
M793.371033,261.888824 
	C794.894775,262.784546 796.224915,263.653107 797.180054,264.826813 
	C797.361572,265.049927 796.189636,267.033234 795.408264,267.218689 
	C794.368225,267.465485 792.098022,266.747498 792.097717,266.442139 
	C792.096191,264.950958 792.674194,263.459167 793.371033,261.888824 
z"/>
<path fill="#F3F7F8" opacity="1.000000" stroke="none" 
	d="
M391.034973,264.946198 
	C389.808197,267.839050 387.862305,268.495758 385.979431,266.466675 
	C385.324646,265.760986 385.628113,262.867035 386.377228,262.405090 
	C388.495148,261.099182 390.563293,261.573639 391.034973,264.946198 
z"/>
<path fill="#F3F7F8" opacity="1.000000" stroke="none" 
	d="
M625.080566,262.452911 
	C626.859558,262.692810 628.450439,263.074554 629.859009,263.807007 
	C630.048950,263.905762 629.629150,266.273956 628.943909,266.690857 
	C628.018738,267.253754 625.762268,267.395966 625.493591,266.919556 
	C624.839355,265.759949 625.001709,264.139679 625.080566,262.452911 
z"/>
<path fill="#F3F7F8" opacity="1.000000" stroke="none" 
	d="
M414.070160,264.889160 
	C412.850800,267.828186 410.867371,268.349609 409.012207,266.397034 
	C408.361145,265.711823 408.671967,262.805847 409.422699,262.344482 
	C411.539276,261.043823 413.604004,261.521820 414.070160,264.889160 
z"/>
<path fill="#176575" opacity="1.000000" stroke="none" 
	d="
M178.216278,195.563263 
	C165.628281,196.428101 153.419525,197.139511 140.914459,197.868179 
	C140.914459,174.260452 140.914459,151.853897 140.914459,127.962242 
	C153.557907,128.815125 166.326492,128.329956 178.475555,130.841568 
	C193.202896,133.886200 201.894745,147.002670 202.062454,162.198395 
	C202.242905,178.549774 194.080872,190.101089 178.216278,195.563263 
z"/>
<path fill="#196777" opacity="1.000000" stroke="none" 
	d="
M524.000122,175.238907 
	C517.407166,175.238907 511.313904,175.238907 504.402435,175.238907 
	C511.219360,159.967316 517.688232,145.475479 524.482300,130.255066 
	C531.278381,145.477829 537.746643,159.966415 544.564941,175.238907 
	C537.345032,175.238907 530.922485,175.238907 524.000122,175.238907 
z"/>
<path fill="#196777" opacity="1.000000" stroke="none" 
	d="
M295.140228,137.910248 
	C300.678589,150.340958 306.080475,162.421219 311.706757,175.003311 
	C298.089691,175.003311 285.312866,175.003311 271.778656,175.003311 
	C278.363586,160.219147 284.812988,145.739227 291.655273,130.377319 
	C292.981384,133.221802 293.992554,135.390793 295.140228,137.910248 
z"/>
<path fill="#1B6878" opacity="1.000000" stroke="none" 
	d="
M519.313843,302.273987 
	C511.249847,300.073486 507.728088,293.673523 510.034637,286.106323 
	C511.984711,279.708557 518.867126,276.417084 525.236633,278.836182 
	C531.617371,281.259583 534.629456,288.721069 531.773865,295.445251 
	C529.539673,300.706055 525.298096,302.750275 519.313843,302.273987 
z"/>
<path fill="#1B6878" opacity="1.000000" stroke="none" 
	d="
M163.161285,299.150024 
	C157.310745,303.284790 151.602402,303.459808 147.343216,299.905853 
	C143.267181,296.504730 141.920334,290.137268 144.166672,284.888336 
	C146.167191,280.213837 151.061050,277.463379 156.279205,278.080780 
	C165.790298,279.206146 169.448288,289.826599 163.161285,299.150024 
z"/>
<path fill="#1B6878" opacity="1.000000" stroke="none" 
	d="
M734.261292,278.350098 
	C738.872986,279.999115 741.630737,282.725037 742.176331,287.870789 
	C734.947449,287.870789 727.967712,287.870789 720.960693,287.870789 
	C721.705688,280.628143 725.599487,277.782715 734.261292,278.350098 
z"/>
<path fill="#1B6878" opacity="1.000000" stroke="none" 
	d="
M316.615906,288.285706 
	C315.726624,287.267212 314.687836,286.093140 314.916687,285.272644 
	C316.233093,280.553040 320.937317,277.658203 326.122864,278.066681 
	C331.444672,278.485870 334.792877,281.795288 335.874878,288.293427 
	C329.537415,288.293427 323.294647,288.293427 316.615906,288.285706 
z"/>
<path fill="#1B6878" opacity="1.000000" stroke="none" 
	d="
M828.623291,278.101685 
	C834.165222,279.365753 837.406433,282.286163 837.953369,288.077454 
	C830.614197,288.077454 823.562134,288.077454 816.481995,288.077454 
	C817.493713,281.039246 820.715576,278.338989 828.623291,278.101685 
z"/>
<path fill="#236E7D" opacity="1.000000" stroke="none" 
	d="
M191.918350,302.359741 
	C190.341629,300.106995 188.080551,297.907501 188.271484,295.946777 
	C188.425522,294.365051 191.386841,292.179382 193.372162,291.840607 
	C197.200165,291.187408 201.218597,291.650055 205.112427,291.650055 
	C206.694412,299.747986 201.737045,303.855804 191.918350,302.359741 
z"/>
<path fill="#236E7D" opacity="1.000000" stroke="none" 
	d="
M554.022949,296.987244 
	C555.819519,294.955048 557.414490,292.309204 559.454895,291.903442 
	C563.270691,291.144684 567.344849,291.685272 571.307617,291.685272 
	C572.534485,297.460846 570.488464,301.039673 565.104614,302.557556 
	C559.730652,304.072723 555.844727,302.258881 554.022949,296.987244 
z"/>
</svg>